<?xml version="1.0" encoding="UTF-8"?><svg id="Capa_1" xmlns="http://www.w3.org/2000/svg" viewBox="0 0 316.08 160"><defs><style>.cls-1{fill:#1d1d1b;}</style></defs><g><path class="cls-1" d="M66.4,144.24h-.3s-.82,.02-.82,.02h-1.85v.36h.07c.26,.03,.42,.07,.46,.15,.06,.06,.08,.27,.08,.61v3.47c0,.34-.02,.56-.08,.64-.05,.06-.21,.11-.46,.12h-.07v.36h3.06c.81,0,1.46-.27,1.95-.8,.49-.54,.74-1.26,.74-2.17s-.24-1.55-.72-2.03c-.48-.48-1.17-.72-2.06-.72Zm1.05,4.67c-.31,.43-.78,.65-1.39,.65-.37,0-.59-.05-.69-.13-.09-.08-.15-.28-.15-.59v-4.21h.44c.82,0,1.4,.19,1.75,.55,.34,.35,.51,.96,.51,1.8s-.15,1.51-.46,1.93Z"/><path class="cls-1" d="M73.45,148.97c-.02,.31-.05,.49-.1,.53-.04,.04-.26,.07-.64,.07h-.48c-.33,0-.54-.01-.61-.04-.1-.03-.15-.26-.15-.69v-1.7h.81c.26,0,.43,0,.49,.03,.07,.03,.1,.15,.11,.35v.07h.41v-1.24h-.4v.08c-.01,.22-.04,.34-.08,.36-.05,.02-.23,.03-.53,.03h-.79v-2.17h1.22c.23,0,.39,.02,.45,.06,.07,.05,.1,.14,.1,.28,0,.03,0,.11,.02,.23v.07h.58v-1.02h-4.19v.36h.08c.26,.03,.41,.07,.47,.15,.05,.06,.08,.27,.08,.61v3.47c0,.34-.03,.56-.08,.64-.05,.06-.21,.11-.47,.12h-.08v.36h4.35v-1.07h-.58v.08Z"/><path class="cls-1" d="M19.38,148.45c-.02,.42-.07,.66-.13,.72-.07,.05-.36,.07-.87,.07h-.64c-.44,0-.72,0-.81-.03-.13-.04-.21-.33-.21-.91v-2.27h1.1c.35,0,.56,0,.66,.04,.09,.04,.14,.19,.14,.47v.08h.55v-1.64h-.54v.09c0,.31-.05,.46-.1,.49-.06,.03-.29,.04-.7,.04h-1.06v-2.88h1.63c.31,0,.52,.01,.61,.08,.09,.04,.14,.17,.14,.37,0,.02,0,.12,.01,.29v.11h.76v-1.37h-5.57v.47h.1c.34,.04,.56,.09,.62,.18,.06,.09,.1,.37,.1,.82v4.62c0,.45-.04,.73-.1,.83-.07,.09-.28,.15-.62,.17h-.1v.48h5.8v-1.42h-.76v.1Z"/><path class="cls-1" d="M24.37,145.3l-.51-.29c-.42-.24-.71-.45-.85-.62-.15-.19-.22-.4-.22-.66,0-.34,.1-.64,.34-.87,.22-.23,.5-.35,.83-.35,.39,0,.71,.13,.96,.37,.11,.13,.18,.41,.21,.9v.08h.77v-1.53c-.77-.21-1.45-.32-2.05-.32-.75,0-1.37,.2-1.83,.59-.46,.39-.68,.9-.68,1.55,0,.82,.63,1.59,1.9,2.28l.51,.29c.42,.23,.7,.43,.85,.63,.15,.2,.22,.45,.22,.77,0,.39-.13,.72-.38,.97-.26,.25-.58,.38-.99,.38s-.8-.13-1.11-.38c-.15-.12-.23-.41-.26-.86v-.12h-.76v1.59c.81,.18,1.52,.28,2.13,.28,.88,0,1.57-.2,2.09-.61,.52-.42,.78-.97,.78-1.66,0-.49-.14-.9-.41-1.24-.28-.34-.79-.72-1.55-1.15Z"/><path class="cls-1" d="M27.31,143.77h.75l.02-.15c0-.44,.05-.72,.13-.81,.1-.08,.3-.12,.61-.12h1.24v5.59c0,.46-.04,.74-.12,.83-.08,.09-.32,.14-.74,.17h-.1v.48h3.48v-.47h-.09c-.43-.05-.68-.09-.73-.14-.06-.07-.09-.36-.12-.87v-5.59h1.24c.31,0,.52,.04,.62,.12,.09,.09,.13,.36,.13,.81v.15h.76v-1.58h-7.09v1.58Z"/><path class="cls-1" d="M42.34,149.16c-.07-.07-.22-.37-.47-.87l-2.85-6.17h-.53l-2.82,6.16c-.24,.52-.39,.81-.46,.89-.07,.07-.24,.11-.52,.13h-.09v.48h2.03v-.47h-.1c-.1-.02-.16-.03-.2-.03-.21,0-.32-.04-.32-.17,0-.14,.09-.41,.28-.82l.38-.82h3.19l.38,.81c.2,.44,.3,.71,.29,.82-.01,.1-.23,.16-.66,.2h-.09v.48h3.16v-.47h-.07c-.28-.03-.46-.07-.54-.14Zm-5.43-2.19l1.34-2.95,1.39,2.95h-2.73Z"/><path class="cls-1" d="M47.14,142.17h-.4l-1.09,.02h-2.47v.47h.1c.35,.04,.56,.09,.62,.18,.06,.09,.1,.37,.1,.82v4.62c0,.45-.04,.73-.11,.83-.08,.09-.27,.15-.62,.17h-.1v.48h4.08c1.08,0,1.95-.36,2.59-1.07,.65-.71,.97-1.67,.97-2.88s-.31-2.07-.95-2.71c-.64-.62-1.55-.94-2.73-.94Zm1.4,6.22c-.41,.57-1.03,.85-1.84,.85-.49,0-.8-.05-.92-.16-.13-.11-.19-.38-.19-.79v-5.59h.57c1.09,0,1.86,.23,2.32,.71,.45,.47,.68,1.27,.68,2.42s-.21,1.99-.61,2.57Z"/><path class="cls-1" d="M55.55,141.99c-1.19,0-2.14,.34-2.82,1.06-.69,.72-1.03,1.69-1.03,2.93s.34,2.19,1.03,2.91c.69,.71,1.63,1.06,2.82,1.06s2.13-.35,2.81-1.06c.69-.72,1.03-1.69,1.03-2.91s-.34-2.21-1.03-2.93c-.68-.72-1.63-1.06-2.81-1.06Zm1.63,6.59c-.36,.58-.91,.87-1.63,.87s-1.27-.29-1.63-.87c-.35-.59-.54-1.46-.54-2.62s.19-2.01,.54-2.6c.36-.56,.9-.86,1.63-.86s1.27,.3,1.63,.86c.36,.59,.54,1.45,.54,2.6s-.18,2.04-.54,2.62Z"/><path class="cls-1" d="M80.94,145.3l-.52-.29c-.42-.24-.7-.45-.85-.62-.15-.19-.22-.4-.22-.66,0-.34,.11-.64,.34-.87,.23-.23,.51-.35,.83-.35,.38,0,.71,.13,.96,.37,.11,.13,.19,.41,.21,.9v.08h.77v-1.53c-.77-.21-1.45-.32-2.05-.32-.76,0-1.38,.2-1.83,.59-.46,.39-.69,.9-.69,1.55,0,.82,.63,1.59,1.91,2.28l.5,.29c.42,.23,.71,.43,.85,.63,.15,.2,.22,.45,.22,.77,0,.39-.12,.72-.38,.97-.25,.25-.58,.38-.98,.38-.43,0-.8-.13-1.11-.38-.15-.12-.24-.41-.27-.86v-.12h-.76v1.59c.8,.18,1.52,.28,2.14,.28,.87,0,1.56-.2,2.09-.61,.53-.42,.78-.97,.78-1.66,0-.49-.13-.9-.41-1.24-.27-.34-.79-.72-1.54-1.15Z"/><path class="cls-1" d="M87.47,141.99c-1.19,0-2.14,.34-2.82,1.06-.68,.72-1.03,1.69-1.03,2.93s.35,2.19,1.03,2.91c.69,.71,1.63,1.06,2.82,1.06s2.13-.35,2.81-1.06c.69-.72,1.04-1.69,1.04-2.91s-.35-2.21-1.04-2.93c-.68-.72-1.62-1.06-2.81-1.06Zm1.63,6.59c-.37,.58-.91,.87-1.63,.87s-1.27-.29-1.62-.87c-.37-.59-.55-1.46-.55-2.62s.18-2.01,.55-2.6c.36-.56,.91-.86,1.62-.86s1.27,.3,1.63,.86c.36,.59,.53,1.45,.53,2.6s-.17,2.04-.53,2.62Z"/><path class="cls-1" d="M97.2,142.66h.1c.34,.04,.56,.09,.63,.18,.06,.09,.09,.37,.09,.82v4.25l-4.18-5.72h-1.91v.47h.1c.35,.04,.56,.09,.63,.18,.06,.09,.1,.37,.1,.82v4.62c0,.45-.04,.73-.11,.83-.07,.09-.27,.15-.62,.17h-.1v.48h2.39v-.47h-.08c-.35-.03-.56-.09-.62-.18-.07-.1-.1-.38-.1-.83v-4.15l4.21,5.75h1.05v-6.22c0-.45,.03-.74,.1-.82,.07-.09,.28-.14,.63-.18h.08v-.47h-2.39v.47Z"/><path class="cls-1" d="M104.25,141.99c-1.2,0-2.14,.34-2.82,1.06-.69,.72-1.03,1.69-1.03,2.93s.35,2.19,1.03,2.91c.68,.71,1.62,1.06,2.82,1.06s2.13-.35,2.82-1.06c.69-.72,1.03-1.69,1.03-2.91s-.34-2.21-1.03-2.93c-.68-.72-1.62-1.06-2.82-1.06Zm1.64,6.59c-.37,.58-.91,.87-1.64,.87s-1.27-.29-1.62-.87c-.37-.59-.55-1.46-.55-2.62s.17-2.01,.55-2.6c.36-.56,.9-.86,1.62-.86s1.27,.3,1.64,.86c.36,.59,.54,1.45,.54,2.6s-.17,2.04-.54,2.62Z"/><path class="cls-1" d="M123.81,149.16c-.06-.07-.23-.37-.48-.87l-2.84-6.17h-.53l-2.82,6.16c-.24,.52-.39,.81-.46,.89-.07,.07-.23,.11-.51,.13h-.09s-.09,0-.09,0c-.29-.02-.47-.06-.58-.14-.09-.08-.33-.37-.69-.86l-1.47-2.06c.48-.2,.84-.48,1.09-.83,.24-.36,.36-.8,.36-1.34,0-1.26-.78-1.91-2.35-1.91l-.47,.02-.94,.02h-2.21v.47h.1c.35,.04,.55,.09,.62,.18,.07,.09,.11,.37,.11,.82v4.62c0,.45-.04,.73-.11,.83-.07,.09-.27,.15-.62,.17h-.1v.48h3.03v-.47h-.1c-.28-.03-.45-.09-.51-.18-.06-.1-.1-.38-.1-.83v-1.84h.65l2.11,3.32h4.29v-.47h-.1c-.1-.02-.16-.03-.19-.03-.22,0-.33-.04-.33-.17,0-.14,.09-.41,.27-.82l.38-.82h3.2l.38,.81c.2,.44,.3,.71,.29,.82,0,.1-.22,.16-.65,.2h-.09v.48h3.16v-.47h-.06c-.29-.03-.47-.07-.54-.14Zm-11.2-3.69c-.31,.31-.73,.48-1.27,.48h-.29v-3.25h.57c.97,0,1.46,.49,1.46,1.47,0,.54-.16,.98-.48,1.31Zm5.76,1.5l1.34-2.95,1.39,2.95h-2.73Z"/><path class="cls-1" d="M88.1,118.45l.05-.07c-.72,.34,.18,.89,.53,.52,.31-.33-.26-.71-.57-.44Z"/><path class="cls-1" d="M77.14,111.09c.18,.06,.34,.12,.46,.18,.14,.08,.25,.18,.37,.29,.09,.09,.17,.17,.27,.24,.34,.26,.48,.31,.77,.36,.08,.02,.18,.04,.31,.07,.28,.07,.52,.2,.76,.33,.28,.15,.57,.3,.95,.39,.07,.12,.21,.32,.54,.32,.02,0,.04,0,.06,0,.27-.02,.41-.22,.48-.33,0,0,0,0,0,0,.04,0,.09,0,.13,0,.15,0,.37,.02,.55-.12,.02,0,.04-.01,.06-.02,.2-.09,.29-.32,.2-.51-.01-.02-.02-.04-.03-.06,0-.05,0-.09-.01-.13-.02-.13-.11-.24-.22-.3-.09-.12-.05-.3,.14-.72,.03-.06,.06-.13,.11-.2,.08-.14,.17-.29,.21-.44,.05-.2,.05-.38,.05-.54,0-.09,0-.18,.01-.25,.04-.25,.12-.49,.21-.75,.08-.25,.17-.51,.23-.78,.03-.14,.08-.3,.13-.46,.12-.38,.26-.82,.17-1.31-.08-.41-.43-1.22-.66-1.59-.14-.22-.29-.38-.43-.52-.19-.2-.33-.34-.38-.59-.04-.19-.02-.47-.02-.74,.02-.62,.05-1.26-.41-1.56-.45-.29-1.04,0-1.24,.1-.17,.08-.32,.17-.47,.26-.22,.13-.4,.25-.63,.32-.11,.04-.22,.05-.32,.08-.31,.06-.65,.13-1,.48-.62,.63-.77,1.61-.88,2.41-.02,.12-.03,.23-.05,.34-.02,.14-.06,.28-.1,.44-.09,.37-.2,.8-.14,1.2,.03,.2,.12,.38,.21,.54,.09,.17,.17,.32,.16,.46-.05,.52-.88,1.23-1.66,1.62-.17,.08-.25,.27-.2,.45,.17,.6,.8,.83,1.31,1.01Zm1.32-3.01c.03-.37-.12-.67-.24-.9-.06-.11-.11-.22-.12-.28-.03-.26,.05-.59,.12-.91,.04-.17,.08-.34,.11-.5,.02-.11,.04-.23,.05-.36,.1-.68,.22-1.53,.66-1.97,.17-.18,.34-.21,.6-.26,.12-.02,.25-.05,.39-.1,.32-.1,.56-.25,.8-.39,.14-.08,.26-.16,.41-.23,.29-.14,.42-.15,.46-.15,0,0,.01,0,.01,0,.09,.1,.07,.6,.06,.87-.01,.31-.03,.64,.03,.91,.09,.49,.36,.76,.59,.99,.12,.12,.23,.24,.32,.38,.18,.29,.5,1.02,.56,1.33,.06,.29-.04,.6-.14,.92-.06,.17-.11,.35-.15,.54-.05,.22-.12,.45-.2,.68-.09,.28-.19,.56-.24,.86-.03,.14-.02,.28-.02,.39,0,.12,0,.23-.02,.32-.01,.05-.08,.17-.13,.26-.06,.1-.11,.19-.14,.27-.15,.36-.39,.91-.12,1.39-.08,0-.16,0-.25,.03-.12,.03-.21,.1-.27,.17-.06-.06-.15-.12-.27-.15-.32-.06-.58-.2-.86-.35-.28-.15-.56-.3-.93-.39-.16-.04-.27-.06-.36-.08-.19-.04-.22-.04-.44-.21-.08-.06-.14-.12-.21-.18-.14-.13-.3-.29-.53-.41-.17-.09-.36-.16-.57-.23-.21-.07-.45-.16-.62-.26,.72-.44,1.6-1.19,1.68-2.02Z"/><path class="cls-1" d="M76.86,114.25c.04-.12,0-.24-.09-.32-.05-.05-.35-.31-.74-.31-.19,0-.36,.06-.51,.18-.04,.04-.08,.08-.09,.14-.28,.81-.17,1.38,.32,1.56,.12,.04,.23,.07,.34,.07,.63,0,.7-.69,.74-1.06,0-.1,.02-.21,.04-.26Zm-.66,.19c-.01,.13-.05,.45-.11,.5,0,0-.03,0-.12-.03-.1-.04-.1-.33,0-.67,.07-.02,.16,0,.24,.05,0,.05-.01,.1-.02,.15Z"/><path class="cls-1" d="M137.01,0H.47c-.26,0-.47,.21-.47,.47V142.02c0,12.84,11.61,13.21,12.94,13.21,.13,0,.21,0,.21,0H61.75c3.75,0,6.15,3.89,6.19,3.94l.41,.62c.09,.13,.23,.21,.39,.21s.3-.08,.39-.21l.42-.64s2.42-3.93,6.18-3.93h48.59s.08,0,.23,0c.9,0,4.09-.13,7.08-1.83,2.67-1.51,5.86-4.72,5.86-11.38V.47c0-.26-.21-.47-.47-.47Zm-.46,142.02c0,4.99-1.81,8.54-5.38,10.57-2.79,1.59-5.78,1.71-6.62,1.71-.12,0-.18,0-.21,0h-48.61c-4.28,0-6.87,4.2-6.97,4.36l-.02,.03h0c-.11-.19-2.69-4.39-6.97-4.39H13.13s-.07,0-.19,0c-2.01,0-12.01-.59-12.01-12.27V.93H136.55V142.02Z"/><path class="cls-1" d="M12.6,126.76c0,10.5,9.55,10.8,10.63,10.8,.11,0,.17,0,.17,0H63.05c3.01,0,4.94,3.12,4.95,3.13l.33,.62c.08,.15,.24,.25,.41,.25s.33-.09,.41-.25l.32-.6s1.94-3.15,4.96-3.15h39.62s.07,0,.19,0c.74,0,3.36-.11,5.82-1.49,2.2-1.24,4.82-3.86,4.82-9.31V13c0-.26-.21-.47-.47-.47H13.07c-.26,0-.47,.21-.47,.47V79.41l-.04,.05,.04,.03v47.27Zm101.64,9.87c-.09,0-.14,0-.17,0h-39.64c-2.55,0-4.37,1.8-5.23,2.86v-59.26h2.26s0,.08,0,.12c-.02,.33-.05,.67,.18,1.11,.1,.19,.19,.31,.27,.42,.13,.18,.19,.25,.17,.61,0,.19-.09,.44-.18,.68-.1,.29-.19,.56-.19,.82,0,.92,.39,1.06,.91,1.16,.09,.02,.18,.04,.29,.06,.99,.25,1.47,1.54,1.94,2.8,.28,.75,.54,1.46,.92,1.97,.25,.34,.51,.7,.77,1.06,.36,.5,.72,1.02,1.1,1.5,.22,.29,.45,.55,.68,.8,.49,.54,.95,1.04,1.16,1.75,.11,.4-.08,.95-.27,1.48-.23,.67-.48,1.36-.17,1.93,.56,1.04,1.53,.93,2.23,.85,.36-.04,.71-.08,.91,.03,.54,.31,.76,.93,.99,1.58,.1,.3,.21,.6,.35,.88,.17,.33,.27,.67,.38,1.02,.06,.22,.13,.43,.21,.66,.04,.11,.08,.2,.12,.29,.07,.16,.12,.25,.11,.39,0,.06-.06,.16-.11,.24-.08,.13-.16,.28-.18,.46-.03,.35,.06,.68,.16,1,.05,.18,.11,.37,.14,.55,.02,.11,.03,.24,.04,.38,.04,.47,.09,1.05,.46,1.4,.13,.13,.32,.17,.52,.21,.09,.02,.26,.06,.31,.1,.07,.05,.16,.19,.23,.29,.05,.07,.1,.15,.15,.21,.08,.09,.2,.23,.33,.37,.08,.09,.19,.21,.29,.32-1.66,1.4-3.07,2.85-4.47,4.34-.53,.56-1.05,1.32-1.55,2.06-.37,.54-.72,1.05-1.06,1.46-1,1.2-1.71,2.17-2.18,2.96-.59,.98-1.39,2.32-.03,3.49,.43,.37,1.18,.4,1.84,.4,.15,0,.31,0,.47,0,.16,0,.32,0,.49,0,.37,0,1.72-.23,2.09-.32l.26-.06c1.79-.41,1.99-.45,3.93-1.38,.02,0,.03,0,.05-.01,.15-.05,.44-.08,.69-.11,.33-.04,.66-.07,.91-.16,.11-.04,.29-.1,.48-.16l.05-.02c.45-.15,.95-.32,1.21-.42,.58-.23,1.01-.38,1.48-.54,.36-.13,.74-.26,1.23-.44,.53-.2,1.08-.44,1.67-.71,.07,.06,.12,.13,.17,.22,.17,.29,.38,.56,1.04,.68,.1,.01,.26,.01,.61,0,.06,0,.12,0,.16,0,0,.02,.01,.04,.02,.06,.03,.12,.09,.33,.29,.51,.34,.3,.84,.4,1.29,.5,.2,.04,.4,.09,.53,.13,.33,.12,.55,.28,.8,.47,.15,.11,.31,.23,.51,.35,.05,.03,.1,.04,.15,.05-.02,.92,.24,1.22,.72,1.7,.1,.09,.21,.21,.33,.34,.18,.2,.24,.32,.34,.54,.04,.07,.07,.16,.12,.25,.02,.03,.03,.1,.05,.16,.04,.16,.1,.37,.27,.54,.19,.2,.45,.17,.58,.16,0,0,.02,0,.02,0,.03,.06,.02,.14,.01,.3-.02,.2-.03,.44,.08,.7,.09,.21,.29,.4,.51,.59,.12,.11,.26,.23,.31,.32,.11,.16,.12,.31,.15,.49,.02,.16,.04,.34,.13,.53,.12,.26,.31,.38,.44,.46,.03,.02,.08,.06,.08,.05,0,0,0,.03,0,.11-.03,.13,.02,.27,.12,.36,.1,.09,.24,.13,.37,.09,.43-.12,.5,0,.74,.51,.15,.31,.31,.66,.64,.9,.22,.16,.51,.26,.8,.35,.2,.07,.41,.14,.56,.22,.06,.04,.16,.11,.24,.18,.22,.18,.48,.38,.77,.42,.31,.04,.51-.08,.64-.17,.07-.04,.1-.06,.14-.07,.17-.03,.36-.04,.57-.05,.24-.01,.49-.02,.73-.07,.03,.12,.06,.23,.08,.34,.09,.45,.19,.92,.89,1.43,.47,.34,1.27,.49,1.8,.14,.38-.25,.54-.69,.42-1.22-.02-.11-.09-.2-.18-.25-.02-.01-.04-.02-.06-.03,.01-.01,.02-.03,.03-.04,.05-.06,.1-.12,.15-.19,.01,.03,.03,.06,.04,.09,.34,.56,.7,.61,1.08,.67,.08,.01,.17,.03,.26,.05,.13,.02,.39,.13,.65,.22,.8,.31,1.35,.49,1.73,.39,.09,.12,.2,.24,.35,.3,.22,.08,.43,.08,.6,.07,.11,0,.21,0,.29,.01,.31,.09,.42,.24,.59,.47,.02,.03,.05,.06,.07,.1-2.1,1.01-4.2,1.1-4.83,1.1Zm-17.57-31.26c.43,.34,4.59-2.68,4.72-1.6-.72,.01-2.13,1.1-3.1,1.59-.59,.29-2.59,1.47-2.32-.07,.15-.85,.94-2.26,1.43-3.02,.69-1.04,1.36-1.97,2.25-2.63-.47,.75-1.59,1.85-1.99,2.77-.15,.35-1.36,2.67-.99,2.96Zm15.8-11.32c.29,1.04,1.36,2.04,2.32,2.3,.42-.43-.14-1.92,.64-1.71,0,.02,0,.03,0,.04-.08,.44,.04,.99-.06,1.46-.1,.47-.17,.6-.13,1.12-1.01-.81-2.28-1.14-3.03-2.76-.6-1.28-.72-3.38,.13-4.6-.41,2.03-.17,3.07,.13,4.15Zm3.3,6.04c.07,2.35-1.72,4.11-2.26,4.94-1.3,2.02-3.11,3.16-4.91,4.45-.28-.07-.56-.17-.85-.32,.03-.6,.56-1.1,.99-1.45,.82-.65,1.31-1.29,2.12-1.96,1.01-.83,2.74-2.38,3.25-3.54,0,0-4.97,5.06-9.01,6.95-3.51,1.65-6.69,4.21-6.69,4.21,.37,0,1.29,.17,1.66,.13,1.03-.1,1.2-.11,2.23-.25,.39-.05,1.26-.19,1.71-.45-2.84,1.98-5.81,3.89-8.71,5.5-.6,.34-1.07,.56-1.49,.73-.89,.36-1.58,.51-2.89,1.05-.68,.27-2.52,1.38-2.98,.79-.64-.81-.66-.21-1.59,.53-1.51,1.19-3.06,1.49-4.82,1.8-.62,.11-3.62,.76-3.46-.42l.07-.07c.99-.92,2.72-1.95,3.81-2.54,1.46-.79,3.04-1.78,4.74-2.59,1.43-.68,2.81-1.36,4.16-2.03,2.29-1.14,4.49-2.29,6.66-3.51,3.83-2.16,6.88-3.31,9.41-4.95,1.57-1.02,3.76-2.48,5.15-3.72,.85-.75,3.52-3.26,3.71-3.29Zm-5.59,11.03c-.66,.53-3.31,1.22-4.51,1.22s-4.47,.46-4.47,.46c.33-.33,2.35-.96,4.14-.89,1.79,.07,5.5-1.32,4.84-.79Zm-13.02-2.26c.81-.41,1.62-.84,2.42-1.27,.48-.26,1.16-.79,1.72-.65-.17,.3-.49,.47-.76,.66-2.18,1.53-4.43,2.99-6.77,4.26-1.34,.73-2.78,1.4-4.19,2.14-1.53,.81-3.02,1.7-4.27,2.83-.07-.25,.13-.52,.32-.75,.91-1.13,2.06-2.06,3.3-2.89,1.31-.87,2.71-1.63,4.03-2.38,1.34-.76,2.82-1.27,4.19-1.97Zm26.77,17.9c0,3.93-1.41,6.76-4.18,8.4-.05-.06-.1-.12-.14-.19-.21-.27-.45-.59-1-.75-.19-.05-.37-.05-.52-.04-.11,0-.2,0-.27-.01-.02-.02-.06-.07-.08-.1-.1-.12-.2-.26-.36-.35-.11-.06-.24-.06-.36,0-.06,.03-.11,.07-.15,.12-.26-.02-.87-.25-1.17-.37-.31-.12-.58-.22-.77-.26-.11-.02-.21-.04-.29-.05-.33-.05-.39-.06-.53-.3-.01-.04-.02-.15-.03-.22-.02-.26-.05-.61-.35-.78-.31-.17-.64,0-.75,.05-.18,.09-.26,.31-.18,.5,.06,.14,.04,.19-.16,.44-.18,.22-.43,.52-.41,.97,0,.13,.07,.25,.18,.32,.07,.04,.15,.06,.23,.06-.02,.02-.03,.03-.05,.04-.21,.13-.66,.07-.92-.11-.46-.34-.5-.56-.58-.96-.05-.22-.1-.49-.23-.81-.04-.09-.12-.17-.21-.21-.1-.04-.2-.04-.3,0-.22,.1-.55,.12-.86,.13-.22,.01-.46,.02-.67,.06-.19,.04-.33,.12-.42,.18-.08,.05-.09,.06-.11,.05-.08-.01-.27-.17-.39-.26-.11-.09-.23-.18-.34-.25-.21-.12-.46-.2-.7-.28-.23-.07-.46-.15-.58-.24-.17-.13-.28-.36-.4-.61-.19-.41-.47-.99-1.18-.99-.09-.24-.27-.36-.4-.44-.09-.06-.13-.09-.15-.14-.04-.08-.05-.18-.06-.3-.03-.22-.06-.5-.27-.82-.11-.17-.28-.32-.44-.47-.11-.1-.28-.26-.31-.32-.03-.08-.03-.17-.02-.32,.02-.25,.04-.6-.23-.92-.21-.24-.49-.23-.64-.21-.01-.04-.03-.09-.04-.13-.02-.09-.06-.2-.11-.3-.04-.09-.08-.16-.11-.23-.11-.24-.21-.44-.47-.73-.13-.14-.25-.26-.35-.36-.35-.35-.49-.49-.49-.98,.1-.05,.18-.1,.25-.15,.03-.02,.06-.04,.08-.06,.1-.05,.17-.14,.2-.25,.03-.11,0-.23-.06-.32-.23-.34-.63-.51-1.06-.46-.1,.01-.18,.06-.25,.13-.05-.04-.1-.07-.14-.1-.28-.2-.56-.41-.99-.57-.19-.07-.41-.12-.64-.16-.35-.07-.75-.16-.94-.32-.02-.02-.03-.03-.05-.12-.04-.16-.12-.46-.52-.61-.09-.04-.13-.03-.43-.03-.14,0-.4,.01-.46,0-.35-.06-.4-.13-.5-.31-.03-.05-.07-.11-.11-.17,.45-.22,.93-.47,1.44-.74l.55-.29c2.51-1.34,4.88-2.61,7.06-4.35l1.67-1.21c.15,0,.29,0,.44-.02,1.27-.11,2.28-.49,3.46-.92,1.14-.42,2.97-1.55,3.04-2.77,0-.09-.02-.17-.08-.23-.06-.06-.14-.1-.22-.1h-.09c-.41,0-.81,.03-1.19,.07,.29-.24,.58-.44,.95-.72l.05-.03c.43-.32,.95-.81,1.25-1.2,.29-.37,.51-.64,.7-.87,.42-.5,.69-.83,1.13-1.6,.83-1.45,1.79-3.7,1.67-6.23,0-.13,0-.32,0-.52,0-.27,0-.54,0-.72-.03-.34-.04-.69-.05-1.03-.04-1.37-.08-2.8-1.16-3.91-.72-.74-1.46-1.5-1.93-2.49-.04-.08-.07-.18-.12-.3-.16-.44-.35-.93-.73-1.17-.18-.11-.36-.17-.54-.17-.79,0-1.06,.97-1.18,1.44-.36,1.33-.39,3.39-.07,4.7,.4,1.58,1.49,2.32,2.55,3.04,0,0,0,0,.01,0-.16,.09-.32,.19-.46,.28-.07,.05-.14,.09-.19,.12-.73,.41-1.25,1.16-1.75,1.89-.2,.29-.39,.57-.58,.79-.6,.73-1.03,1.05-1.77,1.31-.71,.25-1.78,.42-2.66,.42h-.1c-.19,0-.38,0-.57,0h-3.34c-.1-.09-.22-.27-.19-.57,.04-.52-.02-1.01-.07-1.49-.06-.48-.12-.93-.06-1.39,.05-.37-.02-.65-.2-.86-.15-.16-.36-.25-.6-.25-.18,0-.73,0-2.1,1.19-1.59,1.38-2.57,3.18-3.52,4.93l-.46,.84s0,0,0,0c-1.03,.37-2.05,.96-3.05,1.53-.33,.19-.65,.38-.97,.55-1.18,.65-2.21,1.42-3.25,2.22-.14,.11-.28,.22-.43,.34-.09-.1-.19-.22-.32-.35-.12-.13-.22-.25-.29-.33-.04-.05-.08-.1-.11-.16-.11-.16-.24-.34-.4-.47-.18-.14-.41-.19-.61-.24-.06-.01-.14-.03-.18-.05-.14-.16-.17-.56-.2-.87-.01-.16-.03-.31-.05-.44-.04-.23-.1-.45-.16-.64-.08-.28-.15-.51-.13-.71,0-.03,.05-.1,.08-.15,.09-.16,.2-.35,.22-.59,.02-.34-.09-.57-.18-.77-.03-.07-.07-.14-.09-.22-.08-.21-.14-.41-.2-.61-.11-.37-.22-.76-.42-1.16-.12-.24-.21-.5-.31-.79-.25-.72-.54-1.54-1.34-1.99-.41-.23-.9-.18-1.38-.13-.74,.08-1.17,.1-1.46-.45-.15-.27,.04-.8,.22-1.31,.22-.62,.46-1.31,.28-1.95-.25-.88-.8-1.48-1.33-2.06-.22-.24-.44-.48-.64-.75-.36-.48-.73-.99-1.08-1.48-.26-.37-.52-.73-.78-1.07-.31-.42-.56-1.08-.82-1.78-.51-1.37-1.09-2.93-2.48-3.28-.13-.03-.24-.06-.34-.07-.09-.02-.22-.04-.24-.05,0,0-.04-.07-.04-.34,0-.14,.08-.36,.15-.58,.1-.29,.21-.6,.22-.9,.03-.6-.12-.84-.33-1.11-.07-.09-.13-.18-.2-.3-.12-.24-.11-.41-.09-.69,0-.06,0-.11,0-.18h51.7v46.53Zm0-113.29V78.53L69.73,13.47h54.21Zm-.58,65.82H13.92L68.74,13.73l54.63,65.56ZM37.51,28.05l.31,.35c.1,.11,.09,.28-.02,.37l-8.18,7.26c-.06,.03-.11,.07-.15,.12l-.09,.1-.08,.07-9.28,8.24c-.05,.04-.11,.07-.18,.07-.07,0-.13-.03-.18-.08,0,0-.01,0-.02-.01l-.31-.35c-.1-.11-.09-.28,.02-.37l.66-.58,8.54-7.59,8.58-7.62s.11-.07,.18-.07c.07,0,.15,.03,.2,.09Zm-.07-.39c.41-.21,.9-.43,1.51-.55-.2,.61-.48,1.08-.75,1.47,0-.14-.04-.27-.14-.38l-.31-.35c-.08-.09-.19-.16-.31-.18Zm-7.36,8.68l8.51,7.73c.11,.1,.11,.27,.02,.37l-.2,.22-.12,.13c-.05,.05-.11,.07-.17,.08,0,0-.02,0-.02,0-.06,0-.13-.02-.18-.07l-5.05-4.58-3.47-3.15c-.11-.1-.12-.27-.02-.37l.15-.17,.06-.07,.1-.11s.06-.05,.1-.07c.03-.01,.06-.02,.1-.02,.06,0,.13,.02,.18,.07Zm-1.67-1.06l-.11,.12-.2,.22c-.05,.06-.12,.09-.2,.09-.06,0-.13-.02-.18-.07l-3.06-2.78-1.16-1.05-.68-.62-2.52-2.29c-.11-.1-.12-.26-.02-.37l.32-.35c.05-.06,.12-.09,.2-.09,.06,0,.13,.02,.18,.07l2.47,2.24,.7,.64,.9,.82,2.44,2.21,.92,.84c.11,.1,.12,.26,.02,.37Zm-5.12-3.23l1.24,1.12,2.98,2.71c.06,.05,.12,.09,.19,.12l-7.54,6.69-1.01,.89c-.11,.1-.18,.24-.19,.4,0,.15,.04,.3,.14,.42l.31,.35c.05,.05,.1,.09,.16,.12,.08,.04,.17,.07,.27,.07,.14,0,.28-.05,.38-.14l8.79-7.8c.02,.12,.08,.23,.18,.32l2.98,2.71,5.53,5.02c.1,.1,.24,.15,.39,.15s.29-.06,.39-.16c.01,0,.02-.02,.03-.03l.12-.13,.2-.22c.21-.23,.2-.6-.04-.81l-8.51-7.73s-.1-.08-.16-.1l7.56-6.71c-.46,.67-.29,1,.54,1.94,.51,.57,.9,.84,1.21,.84,.13,0,.25-.05,.32-.12,4.12-3.74,2.77-7.04,2.5-7.6-.01-.05-.04-.09-.07-.12-.04-.04-.08-.08-.13-.1-.28-.18-1.2-.69-2.59-.69-1.73,0-3.49,.77-5.24,2.29-.08,.07-.14,.17-.16,.29-.05,.32,.17,.74,.69,1.32,.6,.67,.91,.95,1.3,.95,.15,0,.29-.05,.43-.12l-7.72,6.85c-.02-.13-.08-.26-.18-.35l-1.21-1.1-2.25-2.04-.8-.73c.24-.29,.51-.56,.82-.8,.35-.26,1.11-.9,1.54-.74,.34,.12,.66,.69,.76,.98,.21,.65,.08,1.85,.5,2.38,.7,.9,1.08-1.48,1.12-1.93,.09-.92,.02-1.85,.06-2.78,.04-.94,.22-1.78,.46-2.68,.2-.76,.31-1.6,.67-2.29,.44-.85,.95-1.35,1.66-1.92,.6-.49,.99-1.41,1.39-2.08,.36-.6,1.25-1.21,1.97-.74,.72,.47-.45,1.45-.79,1.93-.53,.76-.86,1.39-1.16,2.29-.33,.99-.57,2.01-1.01,2.96-.17,.37-.43,.76-.55,1.14-.1,.3,0,1.07,.29,1.27,.55,.38,.51-.69,.56-1.02,.07-.45,.22-.77,.47-1.1,.25-.33,.46-.5,.51-.93,.05-.46-.19-.79-.09-1.24,.09-.41,.37-.66,.59-.99,.29-.46,.39-2.15,1.18-2.08,.18,.83-.29,2.32,.55,2.73,.47-.51,.19-1.71,.3-2.39,.07-.42,.3-.61,.4-.99,.07-.3-.15-1.06,.39-.93,.04,.33,.1,.79,.29,1.04,.11,.14,.26,.09,.37,.22,.1,.13,.07,.46,.19,.55,.37,.28,.53-.26,.72,.41,.11,.38,.11,.8,.16,1.19,.04,.25-.01,.86,.34,.94,.43,.1,.57-.72,.74-.99,.19-.31,.46-.51,.69-.79,.27-.33,.49-.52,.72,.09,.13,.36,.01,.73,.25,1.09,.22,.34,.58,.5,.84,.79,.25,.27,.35,.64,.52,.96,.2,.37,.37,.54,.41,.98,.04,.54-.13,.98-.2,1.49-.06,.42,0,.86-.05,1.29-.09,.93-.88,1.53-1.04,2.43-.23,1.27-.15,2.61-.04,3.9,.09,1.01,.13,1.93,.08,2.93-.03,.81-.07,1.83,.2,2.58,.12,.31,.36,.43,.61,.69,.26,.27,.25,.4,.48,.6,.08-.86,.34-1.38-.06-2.18-.41-.81-.29-1.65-.24-2.54,.05-.92-.1-1.78-.15-2.66-.04-.87,.42-1.57,.5-2.38,.06-.59-.23-1.62,.05-2.13,.5-.9,1.13,.58,1.13,1.07,0,1.48-.51,3.97,.79,5.02,.23-.37,.07-.77,0-1.15-.11-.56-.06-1.12-.09-1.69-.04-.79,.11-1.7-.1-2.46-.1-.37-.39-2.3,.25-1.19,.22,.38,.29,.84,.44,1.23,.18,.45,.49,.86,.63,1.34,.39,1.31,.41,2.62,.41,3.99,0,1.13,.23,1.94-.25,2.96-1.03,1.21-2.07,2.43-3.1,3.64-.62,.73-1.25,1.45-1.86,2.18-.19,.22-.36,.71-.63,.71-.41,0-.4-.62-.41-.91,0-.27,.03-.55,.05-.82,.09-.87,.22-1.74,.3-2.58,.09-.94-.78-1.37-.9-2.18-.06-.45-.03-.85-.15-1.29-.09-.36-.24-.71-.25-1.09-.02-.86-.54-1.41-.49-2.33,.03-.63,.14-1.74-.56-2.07-.46-.22-.61,.04-.63,.53-.02,.46,.21,.76,.46,1.14,.27,.41,.38,.69,.33,1.19-.05,.52-.03,.73,.15,1.24,.26,.78,.28,1.6,.25,2.43-.02,.46-.03,.69,.26,1.09,.19,.26,.57,.54,.67,.85,.22,.7-.2,1.66-.24,2.36-.04,.75-.01,1.49-.06,2.24-.04-.04-.18-.07-.24-.12-.11,.3-.4,.4-.7,.4-.05,.25-.32,1.18-1.72,1.81-1.64,.75-7.43-.05-7.43-.05,0,0-.4-4.46-2.58-4.61-2.18-.15-2.53,4.46-2.53,4.46-.54,.64-2.23,.45-2.87-.05-.57-.43-2.04-.45-2.3-.68-.08,0-.17-.01-.25,0-.58,.02-1.27,.03-1.71-.42-.54-.55-.27-1.56-.11-2.22,.4-1.62,1.05-3.01,1.95-4.46,.48-.77,.94-1.49,1.44-2.23,.54-.81,.84-1.7,1.26-2.57,.36-.73,.85-1.42,1.38-2.02ZM13.53,13.47h54.21l-17.68,21.15c-.25-.44-.46-.85-.61-1.25-.09-.24-.17-.49-.24-.74-.12-.43-.25-.87-.5-1.27-.13-.21-.27-.4-.41-.59-.26-.36-.5-.7-.67-1.11l-.12-.28c-.29-.68-.58-1.39-1.22-1.89-.19-.16-.41-.29-.63-.41-.35-.21-.67-.4-.91-.69-.25-.3-.36-.79-.46-1.27-.05-.23-.1-.44-.16-.64l-.08-.24c-.43-1.34-.97-3.02-2.02-3.93-.3-.26-.64-.42-.97-.58-.2-.1-.4-.2-.59-.31-.27-.17-.5-.38-.74-.61-.21-.19-.42-.39-.66-.56-.97-.67-2.6-1.36-3.83-1.36-.27,0-.51,.03-.73,.09-1.05,.3-1.72,1.27-2.32,2.13-.17,.24-.33,.47-.49,.68-.2,.25-.44,.46-.7,.67-.26,.22-.53,.45-.75,.73-.41,.54-.64,1.16-.86,1.77-.07,.18-.13,.36-.2,.54-.63,1.58-1.4,2.73-2.43,3.63-1.19,1.03-2.19,1.94-3.12,3.02l-2.46-2.24c-.11-.1-.24-.15-.39-.15-.05,0-.1,0-.15,.02,.76-.83,2.89-2.96,4.83-3.41,.12-.03,.22-.13,.24-.26l.03-.21s0-.05,0-.07c0-.17-.14-.31-.31-.31h0s-.01,0-.01,0c-.18,.01-3.36,.24-5.78,2.69-.11-.21-.32-.45-.65-.45-.25,0-.51,.14-.77,.43-.31,.34-.42,.66-.33,.95,.09,.26,.32,.4,.48,.46-2.23,2.65-2.15,5.87-2.15,6.01,0,.09,.05,.18,.12,.24,.05,.04,.12,.06,.19,.06,.02,0,.05,0,.07,0l.23-.06c.12-.03,.22-.13,.23-.26,.25-1.88,2.01-4.05,2.83-4.99-.03,.18,.03,.38,.18,.51l2.54,2.31c-1.77,2.35-3.15,4.81-4.74,7.72-.73,1.33-1.48,2.71-1.94,4.22-.46,1.52,.09,2.54,1.73,3.23,.63,.26,1.27,.36,1.88,.44,.66,.09,1.04,.25,1.66,.54,.84,.39,1.67,.58,2.56,.58,.68,0,1.39-.1,2.31-.34,.09-.03,.26-.08,.47-.15,.55-.18,1.46-.47,1.91-.47,.12,0,.15,.02,.16,.02,.04,.07,.07,.15,.11,.24,.08,.21,.17,.47,.53,.55,.16,.03,.34,.05,.57,.05,.12,0,.25,0,.37,0,.23,0,.47-.02,.68,0,1.01,.11,1.87,.16,2.69,.16h0c.26,0,.53,0,.79-.02,1.01-.04,1.92-.22,2.87-.41,.28-.05,.56-.11,.85-.16,.11-.02,.36-.02,.63-.02,.18,0,.34,0,.49,0l-25.66,30.69V13.47Zm0,66.75h54.74v59.26c-.85-1.06-2.67-2.86-5.23-2.86H23.39s-.06,0-.15,0c-1.62,0-9.7-.47-9.7-9.87v-46.53Z"/><path class="cls-1" d="M38.32,41.41c-.06-.13-.22-.23-.28-.36-.12-.22-.06-.36-.24-.56-.25-.29-.67-.41-.95-.67-.36-.33-.48-.61-.63-1.06-.11-.33-.36-.65-.46-.99-.25-.83,.21-1.73,.04-2.57-.17-.81-1.03-.68-1.28-1.25-.1-.21,.13-.78-.18-.91-.15-.06-.53,.29-.64,.42-.2,.23-.29,.54-.45,.79-.15,.25-.43,.41-.57,.63-.26,.4-.41,1.28-.43,1.73,.37,.06,.91-.21,1.22-.03,.45,.26,.07,.83,.36,1.13,.22,.23,.65,.04,.94,.3,.3,.27,.45,.75,.6,1.13,.16,.43,.28,.87,.43,1.29,.19,.52,.29,.55,.76,.75,.49,.22,.69,.49,.89,.93,.2,.42,.45,.37,.73,.71,.25,.3,.08,.67,.65,.68h.05c-.11-.35-.23-.68-.33-1.04-.11-.36-.1-.79-.22-1.08Z"/><path class="cls-1" d="M119.69,19.5s-.06,0-.06,0c-.03-.04-.04-.22-.04-.31,0-.09,0-.18-.02-.24-.03-.15-.09-.3-.15-.44-.08-.2-.16-.38-.16-.57,0-.08-.05-.14-.13-.16-.28-.05-.44,.14-.57,.28-.07,.08-.14,.16-.22,.16h0c-.08-.03-.21-.37-.26-.51-.05-.13-.09-.25-.14-.32-.22-.37-.43-.55-.67-.55-.25,0-.44,.2-.64,.41-.11,.11-.21,.22-.33,.31-.35-.45-1.13-1.01-1.7-1.01-.13,0-.24,.03-.34,.08-.26,.15-.43,.42-.57,.67-.26,.45-.41,.6-.79,.35-.11-.07-.19-.17-.29-.27-.2-.21-.43-.46-.85-.43-.33,.02-.51,.23-.69,.43-.08,.09-.16,.19-.26,.27-.12,.1-.22,.15-.28,.15-.04,0-.09-.03-.17-.07-.1-.06-.24-.13-.46-.16-.39-.05-.57,.16-.72,.35-.1,.12-.2,.23-.35,.29-.17,.06-.29,.03-.45-.03-.07-.03-.16-.06-.26-.08-.09-.02-.18-.03-.26-.04-.17-.02-.29-.03-.43-.14-.09-.07-.12-.13-.16-.2-.07-.14-.16-.34-.69-.22-.35,.08-.56,.36-.73,.62-.17,.25-.32,.46-.6,.46h0c-.18-.01-.33-.17-.49-.34-.21-.23-.46-.49-.84-.44-.27,.04-.43,.23-.57,.39-.09,.11-.17,.21-.27,.25-.21,.09-.43-.02-.68-.16-.07-.04-.13-.07-.2-.11-.09-.04-.19-.11-.3-.18-.25-.16-.53-.34-.82-.34h0c-.41,.02-.57,.29-.71,.53-.06,.1-.12,.2-.19,.29-.15,.16-.32,.24-.54,.24-.15,0-.32-.03-.48-.06-.16-.03-.34-.07-.5-.07-.3,0-.53,.12-.7,.36-.15,.23-.2,.49-.24,.73-.06,.37-.1,.44-.22,.44-.1,0-.25-.05-.44-.15-.07-.04-.14-.08-.2-.12-.13-.09-.25-.17-.4-.17s-.28,.07-.42,.23c-.13,.14-.18,.3-.22,.44-.06,.19-.1,.31-.3,.37-.25,.08-.56,0-.82-.09-.31-.1-.59-.15-.76,.01-.13,.14-.19,.38-.19,.78,0,.1,.02,.23,.05,.38,.04,.23,.09,.57,.02,.7-.06,.1-.2,.15-.44,.15-.08,0-.16,0-.23,0-.11,0-.2-.01-.29,0-.08,0-.14,.06-.15,.13-.05,.33,.07,.6,.18,.84,.08,.18,.16,.35,.16,.54,0,.17-.11,.26-.28,.4-.17,.13-.38,.3-.37,.6,0,.31,.19,.43,.3,.51,.12,.08,.18,.12,.06,.44-.02,.07-.06,.12-.09,.18-.08,.14-.18,.31-.1,.54,.08,.21,.26,.36,.44,.51,.16,.14,.33,.28,.41,.45,.01,.03,.03,.05,.05,.06,.03,.03,3.08,2.4,4.39,5.42-.03,0-.07-.01-.11-.01-.3,0-.63,.18-.75,.58-.54,.46-.38,1-.14,1.37,.08,.12,.19,.21,.33,.26,.04,.01,.24,.08,.58,.18-.23,.79-.49,1.55-.77,2.29-.31,.82-.63,1.66-1.15,2.34-.05,.07-.15,.14-.25,.23-.21,.18-.46,.38-.45,.64,0,.26,.23,.42,.42,.57,.13,.1,.27,.2,.3,.3,.03,.13-.03,.25-.1,.39-.08,.17-.17,.36-.11,.58,.07,.22,.34,.39,.61,.56,.1,.06,.19,.12,.24,.16,.07,.06,.13,.11,.19,.17,.2,.18,.4,.37,.74,.41,.16,.01,.27,0,.34-.03,.02,0,.04,0,.04-.01,.01,0,.05,.05,.16,.23,.09,.15,.16,.28,.22,.4,.25,.47,.42,.8,1.17,.87,0,.05,0,.11,0,.17-.01,.27-.02,.57,.09,.8,.16,.32,.52,.49,.83,.63,.12,.05,.23,.11,.32,.16,.08,.05,.17,.12,.26,.2,.17,.14,.35,.3,.58,.36,.12,.03,.27,.02,.43,0,.19-.02,.38-.02,.47,.05,.02,.03,.04,.14,.05,.2,.02,.12,.05,.23,.1,.31,.14,.23,.22,.28,.37,.31,.05,.01,.1,.02,.19,.07,.26,.15,.25,.17,.19,.33-.04,.11-.1,.26-.1,.48,0,.6,.46,.73,.86,.84l.07,.02c.46,.14,.65,0,.85-.15,.07-.05,.15-.12,.25-.18,.32-.19,.39-.16,.64,.12,.06,.07,.13,.15,.22,.23,.19,.18,.35,.26,.52,.26,.1,0,.19-.03,.26-.06,.09-.03,.16-.06,.28-.04,.15,.03,.26,.1,.38,.19,.17,.13,.36,.27,.7,.28h.05c.29,0,.58-.04,.87-.09,.17-.02,.35-.05,.51-.07,.33-.03,.63-.09,.94-.16l.22-.04c.23-.05,.34,.02,.49,.13,.12,.09,.28,.2,.55,.23,.12,0,.21-.06,.29-.12,.07-.04,.13-.09,.22-.09,.15,0,.3,.08,.45,.17,.1,.06,.18,.12,.26,.17,.23,.16,.44,.32,.82,.32,.04,0,.08,0,.12,0,.51-.04,.92-.36,1.16-.9,.08,0,.16,0,.26,0,.1,0,.21,0,.32,0,.3,0,.49-.02,.63-.08,.37-.15,.4-.42,.41-.62,.01-.13,.02-.24,.1-.33,.06-.08,.19-.13,.32-.19,.18-.08,.39-.17,.54-.37,.22-.3,.38-.82,.28-1.19-.05-.17-.14-.29-.28-.37-.59-1.87-1.28-4.11-1.91-6.18,.11-.13,.21-.31,.23-.54,.02-.19-.03-.48-.32-.79-.11-.11-.25-.23-.42-.35-.38-1.29-.71-2.43-.94-3.27,.18-.04,.36-.09,.53-.13,.17-.05,.31-.16,.39-.32,.19-.39,.38-.93,.16-1.34-.07-.13-.16-.23-.28-.3-.07-.68-.58-.72-.68-.72-.01,0-.06,0-.13,0,.57-1.87,1.63-3.62,2.66-5.32,.47-.78,.96-1.59,1.39-2.4l.1-.2c.47-.87,.95-1.78,1.48-2.64,.06-.1,.13-.19,.2-.3,.17-.23,.34-.47,.42-.73,.2-.61-.21-2.14-.61-2.62-.1-.11-.23-.12-.31-.12Zm-22.3,15.38c-.35-.55,.15-.5,.2-.81,.03-.15,.1-.19,.17-.19,.07,0,.13,.04,.13,.04,.08,.01,.16,.02,.24,.04,.81,.12,1.6,.23,2.38,.32,.06,.17,.13,.34,.19,.47,.05,.11,.16,.17,.28,.17,.02,0,.04,0,.06,0,.14-.03,.24-.15,.25-.29l.02-.27c2.59,.26,4.98,.35,6.99,.35,.26,0,.5,0,.75,0-.05,.3-.13,.58-.25,.86-.61,0-1.21-.01-1.81-.06-.92-.09-1.85-.17-2.78-.19-.93-.03-1.86-.03-2.79,.01l2.78,.22c.93,.08,1.84,.16,2.77,.27,.57,.04,1.13,.05,1.7,.03-.04,.08-.09,.16-.13,.24l-.16,.27c-.05,.09-.05,.19-.02,.28-4.68-.05-8.92-1.16-10.4-1.59-.36-.11-.56-.17-.56-.17Zm3.95-1.21c.19-1.97,1.85-3.51,3.87-3.51,2.13,0,3.87,1.73,3.89,3.86-2.21,.05-5.09,.01-7.76-.35Zm14.96,14.49c-.05,.61-.52,2.13-1.27,1.31-.78-.85-.51-2.59-.68-3.62-.17-1.04-.43-2.2-.87-3.17-.34-.75-.65-.65-.55,.1,.16,1.21,.55,2.55,.92,3.73,.21,.67,.3,1.33,.4,2.01,.07,.47,.31,1.09,.05,1.55-.13,.23-.75,.47-1.01,.34-.28-.14-.35-.78-.42-1.04-.34-1.21-.44-2.46-.64-3.73-.14-.85-.18-1.71-.31-2.56-.11-.73-.23-2.23-.79-2.71-.02,.15-.06,.32-.07,.47-.06,1.14,.3,2.22,.55,3.3,.33,1.41,.12,2.94,.26,4.39,.04,.41,.21,1.12-.22,1.35-.52,.28-.73-.21-.79-.61-.09-.6-.04-1.24-.11-1.85-.13-1.1,0-2.42-.29-3.47-.57,1.35-.21,3.05-.15,4.48,.02,.51,.3,1.57-.3,1.84-.69,.31-.88-.42-1.1-.8-.27,.32-.46,.82-.95,.59-.52-.24-.25-.84-.26-1.3-.03-.73-.06-1.51-.1-2.25-.04-.79,.2-1.9-.16-2.62-.75,.38-.15-.79-.74-.72-.05-.18-.12-.19-.25-.28-.38,.65-.44,1.38-.62,2.1-.22,.91-.66,1.84-.71,2.78-.02,.41,.13,1.04-.11,1.4-.28,.42-.72,.18-.93-.21-.12-.21-.06-1.34-.27-1.3-.35,.08,.01,.84-.64,.65-.02-.78-.05-1.47,0-2.25,.02-.45,.5-2.07,.09-2.37-.72-.52-1.57,2.34-1.7,2.75-.28-.27-.77-.12-1.06-.4-.25-.25-.28-.59-.25-.95,.04-.46,.32-.91,.47-1.35,.23-.66,.48-1.32,.7-1.97,.31-.9,.39-1.36,.69-2.26,.05-.15,1.17-2.36,.36-2.1-.22,.07-.49,.99-.6,1.21-.31,.63-.57,1.29-.83,1.95-.28,.71-.67,1.36-.94,2.07-.24,.62-.29,1.3-.52,1.9-.44-.2-1.12-.26-1.15-.9-.01-.47,.5-.97,.72-1.36,.36-.65,.71-1.35,.94-2.07,.21-.67,.4-1.34,.6-2.01,.14-.45,.38-.56,.1-1-.64,.4-.73,1.6-1.1,2.25-.49,.88-1.06,1.77-1.48,2.68-.14,.3-.16,.91-.49,1.06-.29,.13-.72-.1-.81-.35-.24-.69,.87-1.01,.75-1.71-.28,.16-1.25,.99-1.19,.05,.04-.57,.87-.74,1.1-1.16,.15-.28,.07-.56,.15-.85,.09-.32,.32-.52,.45-.8,.3-.65,0-2.46,.71-2.32,.69,.14,1.35,.27,1.99,.38,3.21,.57,5.84,.79,7.85,.84,.1,0,.19,0,.29,0l1.08,.91c-.08,.2-.06,.38-.03,.5,.15,.48,.77,.73,1.36,.91,.34,.1,.92,.74,1.42,1.3,.49,.54,.96,1.05,1.36,1.29,.13,.07,.25,.12,.37,.15,.29,.92,.61,1.82,.95,2.72,.33,.88,.84,2.17,.77,3.12Zm-.82-7.74s.03,.02,.04,.04c.27,.28,.27,.53,.19,.72-.08,.19-.24,.33-.29,.36,0,0-.18,.5-.63,.5-.09,0-.19-.02-.3-.07-.04-.02-.07-.04-.11-.06-.8-.47-2.08-2.38-2.85-2.62-.61-.18-1.24-.45-1.16-.9,.01-.05,.03-.1,.05-.15,.02-.04,.05-.09,.08-.13,0,0,0-.02,.02-.02l.22-.22h0s.17-.28,.17-.28h0s.07-.08,.1-.11c.04-.04,.08-.07,.13-.09,.07-.04,.13-.05,.2-.05,.36,0,.7,.48,.98,.96,.22,.38,.97,.8,1.71,1.2,.58,.32,1.15,.64,1.45,.93Zm-3.61-3.21c1.03-.07,1.57-.17,1.57-.17,.05,.67,.32,1.37,.49,2.03-.59-.33-1.19-.68-1.34-.95-.2-.35-.44-.7-.72-.91Zm2.63-2.78c.15,0-.05,.55,.3,.6,.35,.05-.05,.85-.05,.85-.17,.05-.35,.09-.52,.13-1.27,.31-2.57,.49-3.87,.57l-.36-.36,.07-.13c.06-.11,.12-.22,.18-.33,.77-.06,1.54-.15,2.3-.28l-1.39,.05c-.27,.01-.54,.01-.81,.02,.13-.28,.22-.58,.3-.87,1.76-.06,3.01-.17,3.56-.22,.18-.02,.29-.03,.3-.03Zm4.89-12.44c-.09,.44-.36,.73-.6,1.12-.92,1.45-1.53,3.08-2.34,4.58-.73,1.36-1.49,2.68-2.2,4.04-.34,.65-.61,1.79-1.36,2.1,0,0-.83,.08-2.13,.14,.02-.17,.03-.34,.03-.51,0-2.88-2.34-5.22-5.21-5.22s-5.22,2.34-5.22,5.22c0,.02,0,.05,0,.07-.36-.06-.71-.13-1.05-.2-.81-.17-1.3-1.84-1.62-2.61-.34-.8-1.03-1.35-1.65-1.96-.64-.63-1.1-1.39-1.67-2.1-.63-.78-.63-1.09-.18-1.97,.64,.42,1.31,1.4,1.75,2.04,.24,.35,.4,.98,.75,1.21,.58,.38,.47-.24,.34-.65-.26-.77-.67-1.53-.98-2.26-.34-.79-1.15-1.45-.87-2.32,.1-.31,.28-.72,.49-.97,.29-.35,.52-.59,.84-.34,.78,.62,.79,1.97,1.2,2.82,.38,.8,.34,1.68,.65,2.51,.35,.94,.8,1.76,1.11,2.72,.15,.46,.92,2.4,.99,.9,.04-.93-.53-1.58-.69-2.46-.17-.93-.5-1.83-.76-2.72-.26-.87-.33-1.66-.75-2.51-.35-.72-.73-1.24,0-1.85,.5-.42,1.08-.62,1.47-1.21,.62,.42,.68,1.32,1.15,1.9,.88,1.09,.17-1.2,.33-1.52,.46-.89,.61,.62,1.18,.38,.33-.14,.32-.59,.74-.62,.43-.03,.36,.32,.7,.46,0,.57,.63,1.16,.25,1.74-.16-.18-.17-.38-.39-.43-.02,1.17-.03,2.22,.18,3.37,.12,.66,.28,1.26,.5,1.9,.15,.43,.24,1.14,.58,1.46,.46-.19,.27-1.91,.24-2.36-.05-.9-.24-1.76-.36-2.65-.08-.62-.04-1.22,.05-1.82,.09-.62-.28-1.13-.14-1.7,.62-.07,.59,.46,1.04-.16,.29-.4,.36-.68,.82-.25,.33,.32,.25,.58,.81,.42,.52-.15,.66-.45,.7,.29,.1,1.56-.17,3.18-.15,4.76,0,1.01,.06,2.1,.21,3.08,.28-.49,.19-1.33,.24-1.91,.06-.77,.12-1.53,.09-2.31-.05-1.14-.15-2.24,.06-3.37,.11-.56,.23-1.63,.94-1.09,.13,.1,.22,.34,.35,.41,.29,.14,.13-.02,.4-.03,.28,0,.13-.23,.37,.01,.24,.25,.07,1.36,.05,1.67-.04,.79-.17,1.58-.21,2.37-.04,.95-.23,2.12-.09,3.05,.41-.12,.38-1.18,.46-1.54,.12-.57,.23-1.14,.34-1.71,.2-1.07,.34-2.17,.41-3.26,.04-.62,.39-2.19,1.04-1.13,.59,.96,.21,2.51,.12,3.59-.08,.92-.28,1.81-.41,2.71-.08,.56-.4,1.33-.29,1.89,.37-.07,.53-1.71,.66-2.15,.18-.57,.34-1.14,.45-1.71,.19-.94,.17-1.91,.48-2.84,.17-.51,.65-1.94,1.12-2.06,1.44-.34,.76,1.8,.62,2.48-.25,1.23-.5,2.5-.87,3.71-.24,.8-.77,1.77-.74,2.61,.41-.28,.77-1.92,.95-2.43,.29-.84,.4-1.7,.65-2.55,.26-.86,.4-2.84,1.45-3.16,.33,.57-.04,1.55-.13,2.16-.14,1.01-.74,2.06-.61,3.12,.62-.29,.69-1.46,.85-2.05,.15-.54,.28-1.08,.55-1.57,.16-.29,.57-1.09,.97-.86,.2,.12,.35,.88,.59,1.11,.23,.22,.27,.03,.4,.35,.09,.22,0,.42-.04,.64Z"/><path class="cls-1" d="M49.61,55.23c.2,1.39,.19,2.85,.14,3.83-.02,.38-.1,.76-.18,1.16-.05,.26-.11,.52-.15,.78-.07,.5-.25,1.67,.54,2.21,.94,.65,1.88,1.09,2.87,1.54,0,.28-.03,.57-.05,.87-.06,.91-.13,1.84,.14,2.74v.03c.15,.47,.32,1.01,.17,1.41-.01,.03-.1,.15-.15,.22-.25,.35-.56,.78-.41,1.22,.03,.09,.08,.18,.17,.27,.02,.1,.06,.21,.14,.32-.04,.07-.09,.16-.12,.28-.08,.4,.1,.62,.18,.73,0,0,0,.01,.02,.02,.02,.08,.02,.3,0,.44-.02,.1-.05,.21-.09,.31-.1,.3-.26,.74,.09,1.26,.17,.25,.4,.47,.6,.67,.07,.07,.15,.14,.21,.22,.34,.36,.71,.61,1.07,.85,.11,.08,.22,.15,.34,.23,.06,.04,.12,.1,.18,.15,.14,.13,.32,.28,.57,.38,.15,.06,.29,.09,.43,.09,.19,0,.34-.05,.45-.1,.07-.02,.12-.04,.19-.06,.1-.02,.18-.03,.26-.04,.18-.02,.38-.04,.68-.2,.06-.03,.15-.04,.26-.05,.14-.02,.32-.03,.52-.11,.42-.17,.54-.44,.57-.64,.07-.57-.54-1.03-1.09-1.43-.12-.09-.29-.21-.33-.26-.06-.08-.1-.18-.16-.3-.04-.08-.08-.17-.13-.26-.04-.08-.09-.2-.14-.32-.12-.3-.26-.64-.48-.91,.01-.03,.03-.07,.04-.11,.03-.09,.03-.16,.02-.23,.04-.05,.08-.11,.09-.19,.05-.21,.05-.38,.06-.57v-.02c0-.06,0-.1,.02-.16,.01-.07,.03-.15,.03-.26,.01-.29-.06-.51-.11-.69-.03-.09-.05-.17-.07-.25-.02-.13,.04-.3,.1-.49,.02-.05,.04-.1,.06-.16,.24-.73,.35-1.43,.36-2.2,0-.05,0-.09,.01-.11,.02,.03,.05,.08,.07,.15,.05,.19,.02,.4-.01,.65-.03,.18-.05,.36-.05,.56,0,.42,0,.83-.02,1.29,0,.23,.08,.58,.3,.81,.14,.15,.32,.23,.51,.23,.12,0,.31-.04,.5-.21,.2,.4,.51,.45,.65,.45,.21,0,.42-.1,.6-.3,.02-.02,.03-.04,.05-.06,.15,.33,.51,.7,.92,.7,.06,0,.12,0,.17-.02,.1-.02,.18-.06,.25-.11,.1,.11,.25,.22,.49,.27,.11,.02,.22,.04,.31,.04,.25,0,.43-.08,.54-.17,.12,.14,.27,.21,.45,.21,.2,0,.36-.1,.49-.27-.09,.17-.25,.53,.09,.95,.11,.13,.22,.21,.29,.27,0,.01,0,.03,0,.05-.01,.12-.03,.24-.05,.36-.07,.5-.15,1.07,.11,1.66l.02,.05c.26,.59,.53,1.19,1.15,1.62,.3,.21,.59,.44,.88,.67,.15,.12,.29,.23,.44,.35,.24,.18,.46,.31,.76,.31,.15,0,.3-.03,.44-.07,.38-.1,.55-.23,.68-.47,.05,0,.1,.01,.15,.01h.02c.18,0,.34-.1,.42-.26,.22-.44,.03-1.06-.09-1.47l-.03-.1c-.16-.56-.36-.85-.68-1.2-.2-.22-.33-.57-.45-.91l-.02-.06c-.12-.33-.18-.54-.2-.66,.13-.1,.22-.23,.27-.4,.07-.22,.04-.46-.04-.67,.02-.03,.04-.07,.05-.1,.09-.22,.04-.43-.04-.6,.04-.06,.08-.13,.09-.2,.07-.42-.13-.74-.27-.95-.05-.08-.12-.18-.12-.23,0-.07,.15-.26,.23-.37,.06-.08,.12-.16,.16-.23,.23-.36,.43-.67,.51-1.19,.01-.09,.02-.19,.03-.28,0-.11,.02-.22,.04-.31,.13,.03,.26,.08,.4,.14,.3,.12,.64,.25,1.04,.25,.08,0,.16,0,.23-.02,.61-.08,1.49-.36,1.98-.89,.85-.93,1.37-2.55,.71-3.87-.22-.44-.82-1.03-1.22-1.27-.25-.16-.52-.22-.75-.28-.18-.05-.35-.09-.48-.16,0,0-.02,0-.02-.01-.02-.06-.04-.14-.1-.25-.08-.14-.17-.26-.26-.36-.06-.07-.13-.15-.15-.2-.03-.1,.03-.4,.06-.59,.04-.21,.08-.42,.08-.62,0-.56,.05-1.12,.1-1.67,.04-.37,.07-.76,.09-1.15,.02-.33,.02-.72-.11-1.12-.04-.13-.1-.26-.14-.36-.07-.15-.13-.28-.14-.41-.05-.5,.03-1,.11-1.53,.02-.1,.03-.2,.04-.29,.04-.25,.06-.5,.09-.75,.04-.41,.08-.79,.17-1.16,.07-.27,.17-.53,.28-.81,.13-.34,.27-.7,.35-1.08,.05-.26,.09-.52,.12-.76,.06-.39,.11-.77,.22-1.13,.19-.63,.4-1.35,.39-2.15,0-.57-.21-1.07-.4-1.57-.04-.1-.08-.2-.12-.31-.03-.1-.07-.19-.12-.29-.15-.37-.28-.71-.22-1.02,.09-.43,.32-.93,.51-1.37l.1-.22c.06-.14,.16-.26,.27-.39,.23-.27,.55-.64,.45-1.3-.03-.19-.08-.36-.13-.52-.05-.15-.09-.29-.1-.42,0-.1,.02-.19,.06-.31,.05-.15,.1-.33,.1-.56,0-.51-.2-.96-.37-1.36-.08-.19-.15-.36-.2-.52-.03-.08-.05-.16-.07-.24-.05-.21-.11-.44-.23-.66-.09-.17-.2-.29-.3-.4,.27-.52,.4-1.14,.51-1.65l.02-.11c.03-.12,.05-.24,.07-.36,.08-.48,.13-.72,.42-.89,.28-.17,.6-.29,.93-.42,.2-.08,.41-.16,.62-.25,.04-.02,.07-.03,.12-.05,.29-.12,.78-.31,.87-.83,.12-.68-.55-.86-.77-.92-.04,0-.08-.02-.12-.03-.07-.03-.16-.05-.26-.07-.12-.03-.37-.09-.52-.16,.33-.28,.49-.42,.45-.69-.02-.14-.11-.27-.23-.35,.06-.12,.21-.32,.29-.42,.09-.12,.17-.23,.24-.34,.03-.05,.06-.11,.09-.16,.1-.19,.18-.34,.32-.44,.06-.05,.14-.09,.22-.14,.2-.12,.46-.27,.65-.58,.1-.16,.09-.36-.01-.51-.24-.35-.59-.42-.85-.48-.22-.05-.3-.07-.34-.14-.05-.07-.05-.12,.09-.41,.1-.22,.23-.5,.21-.83-.01-.24-.21-.43-.44-.44-.02,0-.04,0-.06,0-.3,0-.56,.1-.76,.18-.14,.05-.27,.1-.36,.1-.01,0-.03,0-.04,0-.08-.05-.27-.21-.39-.31-.43-.36-.63-.52-.87-.52-.09,0-.17,.02-.25,.06-.19,.1-.31,.28-.33,.48-.06,.49,.41,.98,.99,1.53,.06,.06,.1,.1,.13,.13l.09,.11c.33,.42,.5,.65,.44,1.03-.04,.31-.13,.55-.2,.65-.02-.02-.05-.06-.08-.08-.11-.12-.27-.28-.52-.28-.19,0-.52,.09-.57,.72-.02,.29,.1,.53,.2,.74,.04,.08,.07,.15,.09,.21,.07,.22,.04,.4,.01,.45-.03,0-.06,0-.1-.02-.18-.06-.35-.16-.53-.26-.32-.19-.67-.4-1.17-.42-.19,0-.42-.02-.64-.02-.6,0-1.07,.07-1.47,.21-.16,.05-.31,.14-.45,.22-.04,.02-.09,.05-.14,.07,0-.07,.06-.29,.11-.45,.2-.75,.35-1.34-.06-1.63-.11-.08-.24-.12-.37-.12-.22,0-.38,.12-.48,.2-.06-.07-.12-.18-.16-.27-.18-.48-.06-.64,.45-1.16l.07-.07c.39-.41,.92-1.02,.9-1.61,0-.13-.03-.26-.09-.37h0c0-.1-.06-.18-.14-.21-.02-.02-.04-.04-.06-.06-.09-.08-.2-.12-.32-.12h-.02c-.12,0-.24,.06-.32,.15-.05,.06-.11,.12-.17,.19-.19,.22-.47,.55-.66,.56-.06-.02-.17-.08-.26-.13-.24-.13-.48-.26-.73-.26-.31,0-.56,.2-.63,.52-.06,.27,.08,.54,.2,.77,.03,.05,.07,.13,.08,.16l.02,.08c.03,.09,.08,.3,.07,.38-.03,.07-.19,.12-.41,.19-.19,.06-.41,.12-.59,.26-.12,.09-.19,.23-.19,.39,.02,.64,.51,.86,.8,.98,.11,.05,.22,.1,.27,.15,.11,.1,.22,.29,.34,.47,.1,.15,.2,.31,.31,.46,.11,.14,.18,.24,.22,.3-.09,.11-.2,.29-.15,.54,.02,.11,.07,.2,.13,.27-.05,.01-.11,.01-.18,.01-.08,0-.17,0-.25,0-.07,0-.13,0-.2-.01-.03,0-.05,0-.08,0-.66,0-.89,.33-.98,.53-.21,.5,.13,1.09,.51,1.48,.45,.45,.94,.62,1.41,.79,.11,.04,.23,.08,.34,.12,.65,.25,.64,.77,.44,1.9-.05,.3-.1,.61-.12,.9-.01,.22,.03,.42,.07,.59,.03,.13,.05,.25,.05,.35q0,.1-.08,.2c-.06,.07-.14,.17-.22,.32-.34,.63-.52,1.54-.62,2.17,0,.03,0,.04-.04,.09-.03,.06-.08,.14-.12,.25-.18,.5-.06,.96,.05,1.37,.05,.2,.1,.39,.11,.56q.02,.31-.49,.43c-.08,.02-.16,.04-.24,.06-.29,.08-.59,.08-.92,.09-.27,0-.54,0-.83,.05-.51,.08-.98,.22-1.42,.36-.1,.03-.2,.06-.3,.09-1.01,.31-1.86,1.01-2.67,1.69-.3,.25-.58,.48-.86,.7-.11,.08-.21,.17-.31,.26-.1,.09-.19,.18-.27,.23-.09,.06-.2,.11-.32,.16-.19,.08-.42,.18-.63,.35-.31,.27-.63,.47-.95,.62-.08,.04-.15,.06-.22,.09-.25,.1-.57,.21-.82,.59-.05,.08-.09,.14-.12,.2-.01,.02-.02,.04-.03,.05h0s-.03,.02-.08,.04c-.62,.29-1.2,.8-1.54,1.35-.12,.19-.17,.37-.2,.51-.03,.13-.05,.2-.1,.27-.05,.06-.1,.12-.15,.18-.13,.16-.28,.33-.39,.56-.17,.34-.27,.68-.37,1.02-.08,.28-.16,.54-.27,.78-.06,.13-.12,.26-.18,.39-.22,.47-.42,.91-.55,1.44-.3,1.26-.11,2.62,.06,3.82l.02,.16Zm7.39,12.02s-.03,.02-.04,.03c-.12,.25-.17,.51-.22,.75-.02,.08-.03,.17-.04,.26-.02,.16-.05,.3-.09,.44-.03,.12-.08,.24-.12,.37-.03,.1-.07,.2-.1,.31-.07,.23-.14,.51-.09,.77-.01,0-.02,0-.03,.01,0,0,0,0,0,0-.03,.03-.03,.07,0,.1,.03,.04,.07,.09,.1,.13,.1,.14,.19,.28,.24,.43,.04,.11,.03,.18,0,.2-.01,.02-.05,.06-.19,.09-.02,0-.03,.01-.04,.02-.03,.01-.05,.03-.07,.05-.03,.04-.04,.09-.03,.14,0,.05,.03,.09,.08,.12,.01,0,.02,.02,.03,.03,.08,.08,.12,.21,.1,.35,0,.05-.02,.09-.04,.12,0,0-.02-.01-.02-.02-.02-.01-.03-.02-.05-.03-.03-.01-.06-.02-.09-.02-.06,0-.12,.02-.16,.07-.09,.09-.09,.23,0,.32,.02,.02,.04,.04,.07,.06,.04,.04,.07,.11,0,.23-.04,.05-.09,.1-.15,.12-.03,.01-.04,.01-.05,.01l-.02-.02s-.1-.06-.16-.06c-.02,0-.03,0-.04,0-.12,.02-.2,.14-.17,.26,.01,.07,0,.11,0,.12,0,.01-.04,.03-.09,.04-.02,0-.02,0-.04,0-.11,0-.22-.07-.23-.1-.02-.09-.07-.15-.15-.16-.01,0-.02,0-.03,0-.09,0-.16,.06-.18,.15-.01,.07-.04,.09-.07,.1-.02,0-.05,.01-.08,.01-.04,0-.08,0-.12-.02-.08-.03-.14-.08-.17-.14-.04-.06-.04-.14-.01-.21,0,0,0-.02,0-.04,0-.04-.03-.08-.07-.08h0s-.03,0-.03,0c0,0-.02,.01-.02,.02t0,0c-.04,.05-.06,.11-.07,.17-.02,.07-.01,.15,.01,.22,.04,.11,.13,.22,.26,.29,.1,.06,.2,.09,.3,.09,.04,0,.08,0,.11-.01,.05,0,.09-.03,.14-.06,.03,.03,.06,.05,.1,.07,.12,.07,.25,.1,.38,.1,.18,0,.34-.08,.43-.21,.02-.03,.04-.06,.05-.1,.06,0,.13-.01,.2-.04,.03-.01,.06-.03,.09-.05,.18,.27,.31,.57,.45,.88l.08,.18c.18,.39,.39,.83,.74,1.19,.14,.15,.31,.24,.45,.33,.05,.03,.09,.06,.13,.08h.02c.16,.12,.31,.22,.34,.34,.02,.07,.02,.12,0,.14-.01,.02-.06,.06-.15,.08-.06,.01-.12,.02-.18,.02-.12,0-.26-.02-.37-.06h-.02s-.02-.01-.02-.01c-.01,0-.02,0-.03,0-.07,0-.14,.05-.16,.12,0,.04-.03,.09-.06,.14-.03,.07-.07,.14-.09,.23-.06,0-.13,.01-.2,.01s-.13,0-.19-.02h-.01s-.07,.02-.08,.06c0,.01,0,.02,0,.03,0,.01,0,.02,0,.03-.03,0-.06,0-.1,0,0,0,0,0,0,0-.01-.03-.03-.04-.06-.05-.58-.06-1.06-.21-1.42-.47-.41-.29-.74-.69-1.06-1.09-.14-.18-.31-.33-.46-.46-.05-.04-.09-.08-.13-.12-.11-.1-.19-.18-.25-.25-.03-.04-.06-.08-.08-.12-.03-.06-.04-.09-.05-.14-.02-.17,.05-.36,.13-.57l.04-.1c.05-.13,.09-.28,.09-.43,0-.05,0-.1-.02-.15,.16,0,.32-.09,.42-.23,0,0,0-.01,0-.02,0-.01,.01-.02,.01-.03,0-.04-.04-.08-.08-.08h0s-.03,0-.04,.01c-.04,.03-.08,.05-.12,.06-.05,.02-.09,.03-.13,.03-.02,0-.04,0-.06,0,0,0-.01,0-.02,0-.02,0-.04-.03-.06-.04-.07-.04-.12-.1-.15-.17-.03-.09-.02-.16,.01-.17,.04-.03,.1-.04,.17-.04,0,0,.01,0,.02,0,.03,0,.07,0,.1,0h.02c.1,0,.19-.07,.22-.17,.03-.12-.04-.24-.16-.28-.06-.01-.11-.04-.16-.07-.06-.04-.1-.08-.11-.11,0-.01,0-.03,.02-.07,.02-.02,.06-.05,.1-.08,0,0,0,0,0,0,.03-.01,.05-.03,.07-.04,.09-.06,.12-.18,.07-.28-.02-.05-.07-.09-.12-.11-.03-.01-.06-.02-.09-.02-.03,0-.06,0-.09,.02-.06,.03-.1,.05-.14,.08-.02,0-.03,0-.05,0s-.03,0-.05,0c-.07-.02-.11-.07-.14-.17-.02-.06,.02-.15,.1-.24,.03-.04,.06-.07,.09-.1,.07-.07,.14-.14,.17-.24,.08-.02,.15-.04,.22-.05,0,0,.02,.02,.03,.02,0,0,0,0,0,0,0,0,.02,0,.02,0,.03,0,.06-.02,.07-.04,.17-.33,.12-.72,.03-1.08-.04-.16-.08-.31-.13-.46-.05-.17-.1-.33-.13-.49-.06-.27-.08-.56-.09-.95,0-.1,0-.19,0-.29,0-.24,0-.48-.01-.72,0-.03-.03-.05-.05-.06,0,0,0-.01,0-.02,.1,.03,.19,.07,.28,.09,.1,.03,.2,.06,.3,.1,.19,.07,.37,.15,.56,.22,.22,.09,.46,.18,.69,.27,.37,.13,.8,.27,1.25,.27,.04,0,.08,0,.12,0,.12-.01,.23-.03,.35-.06,0,.06,0,.12,0,.18Zm-.51,5.78s-.03-.03-.04-.04c0,0,0,0,0,0,0,0,0,0,0,0,0,0,0,.02,.01,.02,0,.01,.01,.02,.02,.04Zm7.24-6.25c-.22,.21-.47,.38-.75,.51-.07,.03-.13,.05-.19,.08-.22,.08-.46,.14-.7,.17-.1,.01-.19,.02-.29,.02h-.05c-.1,0-.2-.01-.3-.02-.61-.07-1.19-.35-1.62-.79-.51-.5-.8-1.18-.8-1.88-.01-.7,.26-1.39,.75-1.9,.49-.52,1.18-.83,1.9-.85,.04,0,.07,0,.11,0,.39,0,.78,.09,1.14,.25,.04,.02,.07,.04,.11,.06,.23,.11,.45,.25,.64,.42,.23,.21,.41,.46,.56,.73,.2,.38,.31,.8,.32,1.23,.01,.73-.3,1.47-.83,1.98Zm2.79-14c.02,.09,.04,.18,.06,.27,.11,.51,.08,1.01,.05,1.53,0,.12-.01,.24-.02,.37,0,.13-.01,.26-.02,.4-.03,.46-.05,.94,0,1.42,.05,.53,.25,1,.44,1.44,.03,.08,.07,.16,.1,.24,.14,.35,.22,.75,.29,1.14,.02,.12,.05,.25,.07,.37,.03,.13,.05,.26,.07,.38,0,0,0,0,0,0-.22-.17-.43-.33-.58-.51-.26-.32-.54-.6-.81-.87-.14-.14-.28-.27-.42-.42-.36-.37-.75-.72-1.13-1.05-.56-.49-1.09-.95-1.52-1.5-.15-.19-.31-.35-.46-.51-.22-.22-.42-.42-.55-.67-.18-.33-.2-.75-.22-1.18,0-.16-.02-.32-.03-.47-.01-.15,.05-.24,.3-.49,.17-.18,.39-.4,.54-.71,.08-.17,.17-.34,.27-.52,.22-.39,.44-.8,.54-1.26,0-.04,.02-.1,.03-.15,.04-.19,.14-.7,.24-.81,.13-.12,.45-.2,.71-.27,.12-.03,.24-.06,.35-.09,.36-.11,.68-.31,1-.5,.27-.17,.54-.33,.79-.42,.02,.1,.04,.2,.06,.3,.06,.3,.12,.58,.06,.84-.04,.22-.11,.43-.17,.65-.12,.38-.23,.78-.26,1.25-.03,.65,.1,1.23,.22,1.79Zm-2.01,4.89c-.07-.07-.15-.14-.22-.21,.04,.03,.08,.06,.12,.1,.03,.03,.07,.07,.1,.11Zm-1.32-8.29c-.03,.06-.07,.11-.09,.17-.07,.18-.1,.36-.14,.53l-.02,.09c-.03,.17-.08,.32-.19,.44-.14,.15-.29,.33-.39,.53-.08,.15-.12,.32-.16,.46-.01,.05-.03,.1-.04,.15-.04,.15-.12,.26-.27,.37-.06,.04-.12,.08-.2,.12-.07,.04-.16,.09-.24,.15,.06-.21,.12-.41,.23-.58,.2-.32,.37-.65,.49-.9,.33-.64,.62-1.3,.91-1.96,.1,0,.19,0,.26,.03,.05,.01,.09,.03,.11,.06-.11,.11-.2,.22-.27,.33Zm-1.71,3.8c-.02,.14-.06,.29-.06,.45,0,.02,0,.03,0,.05,0,0-.02,0-.02,.01-.01,0-.02,.02-.02,.04-.08,.46,.1,.92,.24,1.22,.16,.32,.37,.65,.66,1.04,.47,.62,1.03,1.16,1.57,1.68l.08,.08c.48,.48,1.05,.99,1.8,1.59,.04,.04,.08,.07,.13,.1,.11,.09,.22,.18,.31,.27,.11,.11,.21,.23,.31,.35l.08,.09s.08,.09,.12,.13c.23,.26,.48,.53,.81,.67,0,0,.02,0,.03,0,0,0,0,0,.01,0,.02,0,.03-.01,.05-.02,0,0,0,0,.01-.01,0,0,0,0,0-.01,.04,.04,.07,.08,.1,.12t0,0s.02,.05,.03,.07c.09,.21-.02,.28,.06,.5,.01,.03,.03,.06,.05,.08,.04,.04,.08,.06,.12,.09,.01,.02,.02,.05,.04,.07,0,.01,0,.03,0,.05,0,.02,0,.05-.01,.08,0,0,0,0,0,0-.03,.01-.07,0-.1,.01-.15,.17-.28,.34-.39,.51-.37,.51-.58,1.14-.57,1.76,0,.12,.01,.25,.03,.37-.02,.02-.05,.04-.06,.06-.24,.01-.41,.09-.55,.19-.07,.03-.14,.07-.2,.12-.21,.14-.37,.32-.52,.49l-.08,.08c-.18,.21-.34,.37-.53,.49-.18,.11-.39,.18-.68,.21,.25-.45,.39-.97,.37-1.49,0-.78-.33-1.55-.89-2.1-.56-.56-1.33-.89-2.13-.9h-.05c-.53,0-1.06,.14-1.52,.4-.01-.06-.02-.12-.03-.17-.02-.1-.03-.21-.06-.31-.03-.1-.06-.17-.11-.26-.05-.08-.12-.14-.18-.19h-.01c-.26-.18-.24-.5-.2-.81,.02-.15,.05-.31,.09-.47,.04-.17,.07-.34,.09-.52,.05-.3,.11-.65,.18-.98,.07-.34,.16-.65,.26-.95,.07-.2,.15-.4,.23-.6,.04-.11,.09-.21,.13-.32,.29-.75,.46-1.38,.53-2,.02-.19,.03-.38,.03-.57,0-.16,0-.3,.02-.44,.02-.17,.05-.31,.09-.43,.02-.05,.04-.11,.08-.17,0-.02,.02-.04,.02-.06,.03,.07,.06,.14,.09,.19,0,0,0,.02,.01,.02,.01,.02,.04,.03,.06,.03,.01,0,.02,0,.03,0Zm6.2,6.61s0,.02,.01,.04c.05,.15,.1,.29,.14,.44v.03c.04,.13,.07,.26,.07,.37,0,.03,0,.07,0,.1,0,.06,0,.13,0,.19h0s-.07-.1-.09-.16c0,0,0-.01,0-.02,0-.02-.01-.03-.02-.04-.06-.29-.02-.62-.07-.89,0-.02,0-.04-.01-.06Zm-.71,4.97s-.03,0-.04,0c.01,0,.03,0,.04,0,0,0,0,0,0,0Zm-2.69,1.65s-.02,0-.02,0c0,0,0-.01,0-.02,0,0,0,0,.01,.01Zm3.97,.72s0-.04,0-.06c0-.03-.02-.07-.05-.08,0,0-.01,0-.02,0h0s-.05,.01-.06,.03c-.13,.17-.16,.38-.18,.56v.09c-.04,.21-.08,.37-.16,.5-.04,.09-.09,.17-.14,.25-.05,.09-.11,.18-.16,.28-.08,.16-.13,.32-.15,.46,0,.07-.01,.14,0,.21,0,.03,.03,.06,.06,.07h0s0,0,0,0c-.03,.1-.05,.2-.07,.3-.02-.01-.03-.03-.05-.04-.01,0-.03-.01-.04-.01,0,0,0,0-.01,0,0,0,0,0-.01,0-.01,0-.03,0-.04,.02-.02,.03-.02,.08,0,.1,.04,.04,.07,.08,.1,.12,.04,.05,.09,.12,.12,.18,.07,.12,.12,.23,.15,.33,.03,.1,.01,.15,0,.15-.02,0-.04,0-.06,0-.04,0-.08,0-.13-.02-.04-.01-.08-.02-.12-.03-.02,0-.03,0-.04,0h0c-.08,0-.16,.06-.17,.15,0,.05,0,.09,.03,.13,.03,.04,.07,.06,.11,.07h0s0,0,0,0h0c.11,.03,.21,.16,.23,.31,.01,.07,0,.13-.01,.14,0,0-.01,.01-.03,.01h-.02s-.06,0-.09,0c-.04,0-.07,.02-.1,.04-.05,.04-.09,.09-.1,.16,0,.06,.01,.11,.05,.16,.02,.02,.03,.03,.05,.04,.03,.02,.06,.03,.1,.03,.01,0,.03,0,.04,0,.01,0,.03,0,.04,0,.07,0,.08,.03,.08,.04,.02,.04,.02,.14-.02,.22-.04,.09-.11,.15-.15,.16-.02,0-.03,0-.04,0,0,0-.01,0-.02,0-.04,0-.08-.02-.12-.06-.04-.03-.09-.05-.14-.05-.06,0-.11,.02-.15,.06-.04,.04-.07,.1-.08,.16,0,.06,.02,.12,.06,.17,.01,.02,.02,.03,.03,.04-.02,.01-.06,.03-.09,.04-.03,0-.07,0-.1,0-.13,0-.22-.05-.23-.07-.03-.09-.11-.14-.2-.14h-.02c-.11,.01-.2,.11-.19,.23,0,.1-.02,.13-.11,.14-.01,0-.03,0-.04,0h-.02v-.02s0-.04,0-.04c0-.04,0-.06-.02-.09,0,0,0-.01-.02-.01l-.08-.08s-.03-.02-.05-.02c0,0,0,0-.01,0h-.02s-.09,.02-.14,.05c-.03,.02-.05,.03-.07,.04-.02,0-.03,.02-.04,.03-.01,0-.02,.01-.03,.02-.03,.02-.04,.05-.05,.08-.09-.05-.12-.18-.11-.28,0,0,0-.01,0-.02,0-.04-.03-.08-.08-.08h0s-.01,0-.02,0c-.01,0-.02,0-.03,.01-.01,0-.02,.02-.02,.02,0,0,0,.01,0,.02-.03,.1-.03,.19-.02,.27,0,.02,.02,.04,.02,.06,.03,.08,.07,.15,.14,.19,.08,.06,.17,.08,.28,.08h.03c.12,.08,.27,.12,.42,.12h.02c.08,0,.24-.03,.36-.16,0,0,0,0,0,0,.03,.02,.06,.03,.1,.04,.09,.03,.18,.04,.27,.04,.05,0,.1,0,.15-.01,.12-.02,.3-.06,.43-.26,.01-.02,.02-.04,.03-.06,0,0,0,0,.01,0,0,0,0,0,0,0,0,.03,0,.06,.01,.09,0,.04,0,.08,.02,.12-.05,.16-.05,.35,.02,.58,.06,.2,.16,.39,.27,.59,.08,.14,.17,.29,.25,.42,.13,.21,.26,.42,.35,.62,.03,.08,.06,.18,.09,.27,.1,.29,.2,.59,.28,.87,.02,.1,.08,.34,.06,.46,0,0,0,0-.01,0-.06-.01-.13-.04-.23-.1-.04-.02-.07-.03-.1-.03-.04,0-.07,0-.1,.03-.04,.03-.07,.07-.08,.12-.01,.05,0,.1,.02,.14,.03,.06,.06,.11,.06,.14-.01,0-.03,.01-.05,.02-.06,.03-.14,.06-.21,.12l-.03,.03s-.06,.06-.09,.08c-.14,.05-.29,.07-.45,.05-.31-.4-.74-.69-1.13-.95-.47-.31-.76-.6-.95-.92-.11-.19-.24-.41-.35-.62-.13-.24-.21-.44-.25-.61-.03-.2,0-.42,.02-.65,.03-.25,.05-.51,.02-.77,0-.03-.02-.04-.05-.06,0-.08,.02-.16,.02-.23,0,0,.02,0,.03-.01,.05-.02,.08-.07,.07-.12,0,0,0,0,0,0,0-.02,0-.04,.02-.06,0-.02,.01-.03,.02-.05,0-.01,0-.02,0-.03,0-.04-.03-.08-.08-.08h0s0,0-.02,0c0,0-.01,0-.02,0,0,0-.01,.01-.02,.02,0,0,0,0,0,0,0,.02-.02,.02-.03,.03-.02,.02-.03,.04-.05,.07h-.03s-.09,0-.12-.01c-.06-.04-.11-.07-.15-.12l-.03-.03s-.01-.06-.02-.08c0-.07,.03-.15,.09-.21,.02-.02,.05-.04,.07-.05,.07,0,.14-.02,.19-.03,.09-.02,.15-.1,.17-.18,0-.02,0-.03,0-.05,0,0,0,0,0-.01-.01-.11-.11-.2-.22-.2h-.01s-.09,.01-.14,.02c-.01,0-.02,0-.03,0-.01-.02-.03-.04-.03-.05,0,0,0,0,0,0,0-.11,.06-.26,.16-.34,.07-.06,.1-.13,.08-.21-.01-.11-.11-.19-.22-.19,0,0,0,0,0,0-.04-.03-.09-.07-.1-.11,0,0,0,0,0-.01,.01-.02,.02-.04,.03-.07,.05-.1,.11-.2,.19-.33l.02-.03c.07-.1,.13-.19,.22-.28,.02-.02,.02-.04,.02-.06,.01,0,.03,0,.04,0,.02-.21,.05-.42,.08-.63,.03,.07,.05,.14,.09,.21,.01,.03,.04,.04,.07,.04h0s.06-.03,.07-.06c.07-.34,.07-.71,0-1.15-.03-.16-.07-.36-.15-.56-.08-.22-.18-.39-.29-.52-.02-.02-.04-.03-.06-.03,0,0-.02,0-.03,0-.01,0-.03,.01-.03,.03-.02-.17-.01-.34,.05-.51,0,0,.01,0,.02,0l.03,.19c-.02-.08-.02-.14,0-.19,.06,0,.13,.02,.19,.02,.16,0,.32-.03,.46-.09,.29-.12,.51-.33,.69-.53,.07-.08,.13-.15,.19-.22,.11-.13,.21-.25,.32-.36,.18-.18,.38-.31,.61-.39,.14,.56,.44,1.08,.86,1.46,.13,.12,.28,.23,.43,.33,0,0,.01,0,.02,.01,0,.03,0,.06,0,.09,0,.08-.03,.2-.07,.32Zm3.63-4.84c.52,.48,.84,1.19,.85,1.9,0,.48-.13,.96-.37,1.37-.24,.35-.56,.66-.89,.9-.42,.26-.91,.4-1.41,.4h-.05c-.69,0-1.37-.29-1.86-.78-.49-.48-.77-1.15-.77-1.82-.01-.68,.25-1.35,.73-1.84,.47-.51,1.14-.81,1.84-.83,.04,0,.07,0,.11,0,.67,0,1.33,.26,1.82,.71Zm-.48-37.14s0,.03,.01,.04c.02,.07,.05,.14,.1,.21,.06,.08,.12,.14,.2,.18,.05,.02,.12,.04,.18,.04,.04,0,.08,0,.11-.01,.33-.11,.5-.38,.61-.57,.13-.24,.21-.49,.24-.75,.03-.3-.03-.59-.17-.81-.2-.36-.52-.61-.81-.84-.08-.07-.16-.13-.24-.2-.19-.16-.3-.32-.37-.48-.02-.05-.04-.12-.06-.18,.08,.1,.17,.2,.26,.3l.06,.05c.17,.17,.34,.34,.63,.43,.06,.01,.11,.02,.16,.02,.13,0,.23-.04,.32-.07h.02c.14-.06,.26-.12,.36-.17l.05-.03c.09-.05,.18-.09,.26-.13,0,0,0,0,0,0-.01,.04-.02,.08-.04,.12l-.12,.34c-.04,.12-.09,.24-.12,.37v.05c-.04,.12-.08,.26-.02,.44,.02,.06,.05,.13,.08,.2,.04,.07,.08,.14,.13,.2,.1,.12,.24,.21,.39,.27,.15,.05,.31,.08,.51,.08,.04,0,.08,0,.12,0,0,0-.02,.02-.04,.03-.07,.05-.17,.1-.28,.15-.04,.02-.08,.04-.12,.06-.17,.09-.3,.18-.45,.3-.08,.07-.17,.19-.19,.3l-.06,.24c-.04,.21-.17,.39-.31,.57-.05,.07-.1,.14-.16,.21l-.03,.05c-.09,.13-.18,.26-.22,.45-.03,.12,.03,.28,.13,.36l-.04,.02c-.1,.04-.22,.09-.31,.21-.04,.05-.08,.15-.09,.23,0,.05,0,.09,.01,.13,0,.03,.01,.05,.02,.08,.03,.11,.03,.18,0,.25-.1,.16-.33,.28-.49,.35-.16,.07-.36,.14-.55,.14h-.02c-.03-.06-.05-.12-.05-.19,.04-.04,.08-.08,.12-.12,.12-.12,.24-.25,.35-.4,.08-.1,.14-.22,.19-.35,.07-.17,.11-.36,.11-.55,0-.31-.09-.6-.19-.87l-.02-.05v-.02c-.08-.2-.14-.41-.15-.6,0,0,0,0,0,0,0,0,0-.01,0-.02Zm-6.79-.1l-.07-.25c-.03-.1-.11-.23-.2-.29-.16-.12-.28-.21-.46-.29-.04-.02-.09-.04-.13-.05-.11-.05-.21-.09-.28-.14-.02-.01-.03-.03-.04-.03,.02,0,.04,0,.07,0,.22,0,.4-.03,.56-.09,.15-.06,.29-.16,.39-.27,.05-.06,.09-.12,.12-.2,.03-.07,.06-.15,.08-.21,.05-.17,0-.32-.02-.44v-.04c-.05-.13-.1-.25-.14-.37l-.13-.34s-.03-.07-.04-.11h0c.08,.03,.17,.08,.26,.12l.05,.02c.11,.05,.23,.12,.36,.16h.02c.09,.04,.19,.07,.31,.07,.06,0,.11,0,.17-.02,.29-.11,.46-.28,.62-.45l.05-.05c.1-.11,.18-.21,.26-.31-.01,.06-.03,.13-.06,.18-.06,.17-.18,.32-.36,.49-.07,.07-.15,.14-.24,.2-.28,.23-.59,.5-.79,.87-.13,.22-.19,.51-.15,.81,.03,.26,.12,.51,.25,.74,.12,.2,.29,.46,.62,.56,.04,0,.07,.01,.11,.01,.07,0,.13-.01,.19-.04,.08-.04,.14-.1,.2-.18,.06-.09,.09-.19,.11-.27,0,0,0,0,0,0h0c0,.21-.06,.43-.13,.65v.03s-.02,.05-.02,.05c-.09,.28-.18,.56-.17,.87,.01,.3,.11,.58,.27,.81,.02,.03,.04,.06,.06,.09,.11,.14,.24,.27,.36,.39,.04,.04,.08,.08,.12,.12,0,.06-.02,.12-.05,.19h-.04c-.18,0-.37-.06-.54-.13-.16-.07-.39-.17-.5-.34-.03-.05-.03-.1-.02-.16,0-.03,0-.04,.01-.07,.02-.07,.04-.14,.03-.22,0-.08-.05-.17-.09-.22-.09-.13-.22-.17-.32-.21l-.04-.02c.1-.08,.16-.24,.12-.37-.04-.19-.14-.32-.23-.44l-.03-.05c-.05-.07-.11-.14-.16-.21-.14-.18-.28-.35-.32-.56Zm1.66,1.29c0,.05,0,.11,0,.16,0-.02,0-.04,0-.05,0-.03,0-.07,0-.1Zm-1.24,.07s0,.02-.02,.03c0,0-.03,.02-.05,.02,.02-.02,.04-.04,.07-.05Zm.42,9.75c.03-.15,.1-.31,.17-.47,.04-.09,.09-.2,.13-.3,.05-.13,.09-.27,.13-.42,0-.04,.02-.07,.03-.1,.02-.1,.05-.2,.09-.27,0-.02,.02-.03,.03-.04,.06-.09,.13-.18,.21-.27,.04-.04,.07-.09,.11-.13,.01,.02,.03,.03,.04,.05,.02,.02,.04,.05,.06,.07,.02,.02,.04,.02,.05,.02s.04,0,.05-.02c.03-.03,.04-.07,.01-.1-.04-.06-.07-.12-.11-.18,.01-.02,.03-.04,.04-.06,0,0,0-.01,.01-.02,0-.01,.01-.03,.01-.04,0-.04-.03-.08-.08-.08h0s0,0,0,0c-.01,0-.02,0-.03,0,0,0,0,0-.01,.01-.08-.22-.12-.47-.1-.75,0-.35,.06-.69,.12-1.04l.03-.16c.07-.42,.12-.85,.06-1.3-.04-.26-.13-.49-.27-.67-.14-.18-.34-.34-.57-.45-.08-.03-.16-.06-.24-.09-.31-.12-.61-.22-.89-.38-.39-.2-.66-.45-.81-.74-.08-.15-.17-.35-.16-.48v-.02s.05-.04,.22-.04c.04,0,.08,0,.11,0,.08,0,.15,0,.22,.02,.12,0,.25,.02,.37,.02h.03c.27,0,.46-.07,.58-.21,.09-.01,.19-.03,.28-.05,0,.09,.03,.18,.08,.25,.18,.23,.42,.33,.64,.41,.18,.06,.36,.11,.55,.11,.05,0,.1,0,.15-.01h0s.02,0,.02,0c.02,0,.05-.03,.06-.05,.02-.05,.04-.1,.06-.15,.01,.01,.03,.02,.05,.02,.02,0,.04,0,.05-.02,.03-.03,.04-.08,.01-.11-.03-.04-.07-.09-.11-.13,0,0,0,0,0-.01,0-.03-.03-.05-.06-.06-.03-.03-.06-.07-.09-.1-.11-.12-.22-.25-.31-.38-.02-.02-.03-.05-.04-.07,.05-.04,.1-.09,.14-.13,0,0,.02-.02,.03-.03,0,0,0,.01,0,.02,0,.01,0,.03,0,.04,.02,.02,.04,.03,.06,.03,.01,0,.02,0,.04,0,.34-.17,.69-.29,1.06-.35,.22-.04,.44-.06,.65-.06,.15,0,.29,.01,.42,.03,.28,.04,.57,.11,.84,.18,.09,.02,.18,.04,.27,.07,.11,.03,.23,.08,.36,.13,.23,.1,.46,.19,.73,.19,.02,0,.03,0,.05,0,.03,0,.05-.02,.06-.05,0,0,0-.01,.01-.02,0-.04-.02-.07-.06-.08-.05-.01-.1-.03-.15-.05,.1,.03,.21,.06,.31,.1,.05,.02,.09,.03,.14,.05-.04,.11-.09,.22-.15,.32-.09,.14-.2,.27-.3,.39-.03,.03-.06,.07-.09,.1-.01,0-.02,0-.03,.02h0s-.01,.02-.02,.02c0,0,0,.01,0,.02,0,0,0,0,0,.01-.03,.05-.07,.09-.1,.14-.02,.03-.02,.08,.02,.11,.01,.01,.03,.02,.05,.02,.02,0,.04,0,.06-.02,.01,.05,.03,.11,.06,.16,.01,.02,.04,.04,.06,.05,.05,0,.1,.01,.16,.01,.2,0,.39-.06,.57-.12,.22-.09,.46-.19,.63-.43,.05-.08,.07-.17,.07-.25h0s.1,.03,.15,.05c-.02,0-.03,.02-.05,.03h0s0,.08,.03,.1c.23,.15,.5,.21,.75,.26,.07,.01,.13,.03,.2,.04,.16,.04,.31,.07,.44,.13,.03,.01,.06,.03,.07,.04,.01,.01,.03,.03,.04,.04h0s0,.04-.03,.09c-.07,.11-.2,.22-.31,.31-.11,.09-.23,.15-.38,.21-.21,.08-.43,.12-.66,.17-.09,.02-.18,.03-.27,.05-.08,.02-.16,.03-.24,.06,.06-.02,.11-.04,.17-.07h.03s.09-.04,.09-.04c.12-.04,.25-.09,.38-.16,.21-.1,.35-.22,.44-.36,.02-.03,.02-.06,0-.09-.01-.02-.04-.03-.06-.03,0,0-.01,0-.02,0-.12,.03-.24,.05-.36,.08-.2,.04-.41,.08-.62,.15-.15,.06-.34,.14-.49,.29-.16,.15-.26,.35-.25,.55,0,.02,0,.03,.02,.04-.02,.02-.04,.03-.06,.05-.13,.14-.22,.31-.29,.47-.08,.17-.13,.33-.18,.48-.08,.26-.15,.53-.21,.78-.09,.38-.18,.74-.31,1.07-.25,.64-.59,1.15-1.02,1.51-.12,.11-.25,.2-.37,.28-.13,.09-.22,.13-.33,.13-.24,0-.47-.23-.62-.43-.38-.5-.63-1.14-.83-1.69-.1-.26-.15-.53-.2-.81-.07-.36-.14-.73-.31-1.07-.01-.03-.04-.04-.07-.04-.01,0-.02,0-.03,0-.04,.01-.05,.06-.04,.1,.12,.33,.16,.66,.2,1.02,.03,.29,.07,.59,.16,.89,.19,.62,.42,1.26,.81,1.83,.02,.03,.05,.07,.08,.11,.07,.09,.17,.2,.29,.29,.17,.14,.38,.22,.57,.22h.02c.25,0,.47-.14,.55-.2,.13-.09,.27-.19,.41-.31,.28-.23,.52-.52,.74-.85,.11,.07,.22,.19,.31,.37,.11,.21,.19,.45,.27,.77,.03,.11,.05,.22,.08,.34l.02,.07c.03,.15,.09,.29,.15,.43l.04,.1c.1,.23,.19,.44,.2,.65,0,.1-.01,.21-.06,.3-.04,.08-.11,.14-.21,.18-.15,.06-.34,.08-.54,.1-.08,0-.16,.02-.25,.03-.1,.02-.18,.03-.24,.05-.09,.03-.16,.07-.23,.1-.1,.05-.18,.11-.26,.16-.04,.03-.08,.05-.12,.08-.09,.06-.21,.12-.31,.14,0,0,0,0,0,0,0,0-.02,0-.04,0-.02,0-.03,0-.04,0h0s-.03,0-.03,0h-.03c-.05,0-.1-.02-.16-.03-.14-.05-.29-.15-.44-.26-.07-.05-.15-.11-.23-.16-.17-.11-.5-.3-.89-.33-.22-.02-.44-.03-.62-.03h-.17s-.17,0-.17,0c-.28,0-.51,0-.72-.06-.12-.03-.21-.08-.25-.13-.04-.06-.06-.16-.03-.27Zm5.18-2.74s-.06-.04-.09-.06c0-.01,.02-.02,.02-.03,.02,.03,.05,.06,.07,.09Zm-13.5,9.01c.17,.02,.31-.07,.44-.16-.04,.05-.08,.11-.12,.16-.03,.03-.05,.06-.07,.1,0,0,0-.01,0-.01,0,0-.01,0-.02,0-.01,0-.02-.02-.04-.02-.02,0-.03,0-.05,.02-.19,.16-.41,.28-.65,.4l-.1,.06c-.07,.03-.14,.07-.21,.1,.28-.21,.6-.39,.82-.64Zm-4.24,3.45c.05-.08,.14-.15,.26-.22,.09-.06,.16-.07,.28-.1l.09-.02c.15-.04,.4-.14,.49-.41,.02-.05,.03-.1,.04-.15,.02-.08,.04-.16,.06-.18,.07-.07,.17-.12,.3-.15,.08-.02,.16-.03,.25-.05,.21-.03,.45-.07,.67-.23,.19-.14,.34-.32,.48-.49,.05-.07,.11-.13,.16-.19,.18-.23,.44-.39,.71-.55,.2-.12,.41-.25,.59-.41-.12,.24-.2,.49-.2,.74,0,.28,.03,.57,.13,.88,.17,.56,.47,1.07,.86,1.5,.27,.29,.6,.5,.92,.7,.15,.1,.3,.19,.44,.29,.01,.01,.03,.02,.05,.02,0,0,0,0,0,0,.02,0,.04,0,.05-.03,.02-.02,.02-.05,0-.08,0-.01,0-.02-.01-.03-.16-.15-.33-.28-.49-.4-.28-.21-.54-.41-.73-.68-.34-.41-.59-.9-.72-1.4-.07-.27-.09-.52-.08-.76,.01-.22,.09-.45,.24-.67,.28-.42,.72-.77,1.14-1.1,.48-.39,.89-.7,1.32-.97,.51-.32,.98-.52,1.45-.62,.41-.08,.85-.11,1.27-.13,.12,0,.24-.01,.36-.02,.52-.04,1.12-.11,1.65-.36,.03-.01,.05-.04,.05-.07s-.02-.05-.04-.07c.07-.04,.14-.09,.24-.15,0,0-.03-.05,.17-.2,.03,.05,.06,.11,.14,.16,.07,.04,.14,.06,.22,.06,.06,0,.12-.01,.17-.04,.11-.06,.15-.13,.19-.2,.03-.06,.04-.12,.05-.17,.04-.2,.03-.39,.02-.57v-.07c-.04-.34,.09-.68,.22-1.02,.06-.1,.12-.19,.2-.25,.28,0,.57,0,.83,.05,.24,.03,.45,.12,.7,.28,.07,.04,.13,.09,.2,.14,.16,.12,.34,.25,.57,.33,.07,.02,.17,.05,.27,.05,.01,0,.03,0,.05,0h.09s.03,0,.04,0c.02,0,.05,0,.09-.01,.18-.04,.32-.12,.46-.21,.05-.03,.09-.06,.13-.09,.08-.05,.15-.09,.22-.14,.06-.03,.12-.06,.15-.07,.06-.02,.11-.03,.18-.04,.07-.01,.15-.02,.23-.03,.04,0,.08-.01,.12-.02,.04,.06,.08,.12,.12,.21,.02,.05,.04,.1,.05,.15-.01-.02-.03-.03-.04-.05-.02-.02-.04-.03-.06-.03-.01,0-.03,0-.04,.01-.03,.02-.04,.06-.03,.1,.13,.31,.18,.57,.14,.82-.02,.12-.04,.24-.07,.37-.04,.17-.07,.35-.09,.54v.02c0,.07,.03,.12,.07,.16-.03,.29-.12,.56-.22,.79-.13,.3-.28,.6-.47,.88-.17,.25-.37,.53-.6,.77-.28,.29-.51,.45-.73,.5-.11,.02-.23,.03-.34,.03-.2,0-.37-.04-.49-.11-.16-.09-.3-.23-.46-.38-.09-.09-.18-.18-.28-.26-.09-.08-.19-.17-.29-.25-.17-.14-.33-.27-.47-.42-.25-.24-.41-.57-.52-.82-.01-.03-.04-.05-.07-.05,0,0-.02,0-.02,0-.04,.01-.06,.05-.05,.09,.07,.37,.23,.71,.44,.98,.15,.18,.31,.34,.47,.49,.09,.08,.17,.17,.26,.26,.06,.07,.12,.13,.18,.2,.17,.19,.34,.38,.59,.54,.21,.13,.44,.17,.59,.18,.05,0,.11,0,.16,0,.04,0,.09,0,.13,0h.14c.06-.02,.11-.02,.16-.04,.41-.12,.69-.38,.94-.65,.15-.18,.28-.36,.41-.54,.03-.05,.06-.1,.09-.15-.02,.23,.02,.46,.09,.71-.02,.01-.03,.03-.03,.05,0,0,0,0,0,.01,0,.21,.09,.39,.17,.57l.02,.04c.04,.07,.07,.15,.11,.22,.05,.1,.1,.2,.15,.3,.02,.06,.05,.13,.07,.2,.02,.04,.03,.08,.04,.12,.08,.27,.12,.55,.11,.84,0,.39-.08,.78-.19,1.15-.06,.2-.13,.39-.21,.59-.07,.18-.14,.36-.2,.55-.07,.22-.12,.42-.15,.62-.02,.12-.03,.23-.04,.34,0,.09-.02,.18-.03,.27-.05,.35-.13,.73-.26,1.16-.05,.18-.11,.36-.16,.54-.18,.59-.37,1.21-.48,1.83-.07,.37-.12,.76-.18,1.22-.04,.38-.07,.82,0,1.28,.03,.21,.09,.42,.17,.63,.09,.21,.15,.36,.19,.54,.08,.38,.09,.79,.09,1.17v.1c0,.36-.01,.74-.05,1.1-.01,.16-.03,.32-.05,.48-.02,.24-.05,.49-.06,.74,0,.1-.01,.2-.01,.29,0,.11,0,.21-.01,.31v.12c-.03,.17-.04,.34-.02,.52h0c0,.06,.02,.11,.03,.16,.02,.06,.04,.12,.07,.17,.06,.11,.14,.19,.2,.26,.11,.12,.24,.27,.22,.44-.04,0-.07,0-.11,0h-.05c-.61,0-1.21,.19-1.7,.53,0,0-.02-.01-.03-.02-.06-.06-.07-.17-.08-.22,0-.02,0-.05,0-.07,0-.11,0-.23,.02-.34,0,0,0,0,0-.01,0-.05,.01-.09,.02-.14,0-.04,0-.09,.02-.14,0-.06,.02-.11,.02-.17,.01-.15,0-.29-.03-.43v-.05c-.06-.26-.13-.5-.21-.74l-.04-.13-.26-.85v-.04c-.17-.54-.33-1.1-.39-1.65-.07-.53-.03-1.06,0-1.63v-.11c.04-.56,.06-1.21-.04-1.82-.03-.17-.06-.33-.08-.5-.07-.43-.14-.83-.18-1.24-.02-.33-.02-.61,.01-.85,.03-.2,.07-.41,.12-.61,.02-.08,.04-.17,.05-.25,.06-.3,.11-.59,.14-.89,.02-.31,.02-.64-.13-.92-.01-.02-.04-.03-.06-.04,0,0,0,0,0,0-.01,0-.02,0-.03,0-.02,0-.03,.02-.04,.04-.04-.14-.11-.25-.2-.32,0,0-.01,0-.02,0-.04-.03-.08-.05-.13-.05-.05,0-.11,0-.18,.02,.04-.06,.08-.11,.11-.16,0,0,0,0,0,0,.05-.08,.1-.16,.15-.24,.14-.23,.26-.45,.44-.64,.02-.03,.03-.07,0-.1-.02-.02-.04-.03-.06-.03-.01,0-.03,0-.04,.01-.33,.18-.57,.48-.78,.74l-.03,.03c-.24,.29-.45,.52-.73,.68-.66,.42-1.29,.65-1.94,.69-.04,0-.07,.03-.07,.07,0,.04,.02,.08,.06,.08,0,0,.02,0,.03,0,.07,.02,.14,.04,.22,.05-.11,.02-.22,.03-.33,.03-.01,0-.02,0-.03,0-.19,0-.14-.13-.29-.05,.18-.41,.35-.81,.51-1.22l.15-.35s0-.08-.04-.1c-.01,0-.02,0-.03,0-.03,0-.06,.01-.07,.04-.2,.37-.39,.76-.58,1.12-.11,.23-.22,.45-.34,.67t0,0c-.29,.58-.6,1.19-.92,1.77-.18,.32-.35,.6-.51,.86-.15,.23-.23,.49-.29,.72-.01,.04-.02,.07-.03,.11-.02,.05-.03,.1-.05,.15,0,0,0,0,0,.02-.02,.07-.06,.14-.09,.21-.03,.07-.07,.14-.1,.23-.06,.16-.1,.34-.13,.55-.02,.16-.02,.33-.03,.48,0,.18-.01,.35-.04,.52-.06,.57-.22,1.19-.48,1.89-.25,.62-.5,1.28-.6,1.96-.06,.34-.1,.68-.14,1.01-.02,.17-.04,.32-.07,.49-.03,.17-.05,.34-.07,.51-.01,.15-.02,.35,.02,.54,.02,.09,.05,.19,.12,.28,.06,.08,.14,.14,.21,.19,.22,.12,.28,.35,.34,.6,.02,.07,.04,.15,.06,.21,0,0,.01,.01,.02,.02-.18,.11-.35,.24-.5,.39-.22,.21-.4,.45-.55,.72-.01,0-.02-.02-.04-.02h0s0,0-.01,0c-.01,0-.02,0-.03,0,0,0-.02,.01-.02,.02,0,0,0,0,0,.01-.02,.04-.04,.08-.07,.11-.03,.03-.07,.05-.1,.07-.06,.02-.12,.04-.19,.04-.02-.05-.04-.09-.07-.14,0-.02-.02-.03-.04-.05-.02-.03-.05-.06-.06-.09-.02-.05-.06-.07-.1-.07-.02,0-.04,0-.05,.01-.03,.02-.07,.03-.11,.03-.04,0-.07-.01-.09-.04-.05-.06-.08-.16-.1-.29,0-.01,0-.03-.01-.04-.02-.04-.07-.08-.12-.08-.02,0-.03,0-.05,.01-.04,.02-.08,.03-.12,.03-.02,0-.04,0-.06-.01-.05-.02-.09-.09-.12-.17-.06-.16-.09-.34-.11-.56-.02-.21-.02-.41,0-.59,.01-.17,.06-.35,.13-.55,.03-.1,.07-.2,.11-.3,.11-.28,.23-.58,.27-.91,.03-.37,.05-.73,.06-1.08v-.16s.01-.19,.01-.19c.06-1.54,.13-3.14,.64-4.61,.05-.15,.1-.3,.14-.45,.11-.34,.22-.69,.32-1.04,.01-.04,.02-.07,.03-.11,.07-.26,.13-.53,.18-.8,.06-.34,.09-.68,.11-1.02l.02-.22c.03-.49,.07-.87,.12-1.21,.07-.49,.14-.86,.22-1.19,.07-.26,.17-.53,.26-.79,.01-.03,.03-.07,.04-.11l.09-.25,.44-1.15,.04-.09c.14-.35,.28-.71,.34-1.1,0-.04-.02-.08-.06-.09h-.01s-.07,.02-.08,.06c-.08,.33-.22,.65-.36,.95l-.08,.18-.5,1.13c-.04,.09-.09,.2-.13,.31-.02,.06-.05,.12-.08,.19-.08,.21-.16,.43-.24,.66-.12,.43-.2,.85-.27,1.23-.06,.36-.11,.76-.16,1.24l-.02,.2s-.09,.02-.14,.02c-.13,0-.25-.04-.37-.12-.24-.15-.43-.37-.62-.59-.06-.07-.12-.14-.18-.21-.13-.16-.27-.32-.43-.48-.12-.12-.28-.23-.42-.29-.16-.07-.32-.11-.46-.15-.1-.02-.19-.04-.28-.07-.2-.04-.38-.08-.56-.15-.24-.09-.47-.26-.7-.44l-.69-.57-.06-.04c-.22-.17-.43-.33-.63-.51-.18-.16-.39-.38-.46-.6-.03-.09-.01-.17,.03-.25Zm-2.82,4.85c.09-.59,.46-1.06,.63-1.63,.04-.13,.07-.47,.14-.69,0-.01,0-.02,.01-.04,.02-.06,.05-.11,.07-.14,.08-.07,.15-.06,.22-.03,0,0,0,.01,0,.01,.08,.27,.3,.44,.43,.52,.35,.21,.73,.3,1.09,.38l.15,.04c.25,.04,.48,.11,.7,.2,.03,0,.05,.02,.08,.03,0,.09,0,.18,0,.27h0s-.06,.02-.07,.05c0,.02-.03,.04-.04,.07-.06,.12-.14,.22-.22,.33-.04,.05-.09,.11-.13,.16-.07,.1-.15,.23-.19,.37s-.05,.3-.03,.44c.02,.11,.11,.19,.22,.19,.28,0,.49-.19,.59-.37,.12-.18,.16-.38,.18-.54,.02-.19,.02-.37,0-.54-.02-.12-.05-.23-.08-.32,.03,.02,.07,.03,.1,.05,.24,.13,.46,.29,.69,.46,.07,.05,.15,.11,.22,.16,.02,.01,.03,.02,.05,.04,.3,.23,.62,.46,.96,.64,0,0,0,0,0,0,.05,.03,.1,.06,.15,.08,.28,.14,.57,.28,.85,.4,0,0,.02,.01,.03,.01,.04,.02,.09,.04,.13,.06,.02,.23,.04,.47,.05,.7v.11s0,.1,0,.1c0,.12,0,.23,0,.34-.01,.21-.05,.3-.07,.35,0,.01-.01,.02-.01,.02,0,0,0,0-.02,0h-.02s0,0,0,0c0,0-.01,0-.01,0,0,0-.03-.1-.02-.23,0-.12,.03-.23,.05-.36,.03-.18,.07-.37,.05-.57,0-.04-.03-.07-.07-.07,0,0,0,0-.01,0,0,0-.02,0-.02,0-.02,0-.04,.02-.05,.04-.04,.1-.08,.2-.13,.3-.08,.19-.17,.38-.22,.6-.02,.08-.03,.17-.03,.29,.01,.15,.07,.27,.16,.35,.03,.03,.06,.05,.1,.07,.02,0,.03,.02,.05,.02h.03c.07,.03,.12,.04,.18,.04h.03c.16,0,.31-.13,.37-.24,.1-.21,.11-.38,.12-.55,0-.2-.02-.36-.05-.5-.04-.2-.09-.43-.18-.64,.34,.15,.66,.31,.97,.49,.01,0,.02,.01,.04,.01,.01,0,.02-.01,.03-.02,0,0,.02,0,.03-.02,.02-.02,.01-.05,0-.08,0-.01,0-.02-.01-.03-.32-.27-.68-.49-1.05-.71-.12-.07-.23-.13-.35-.19-.25-.13-.5-.27-.74-.41-.35-.2-.65-.44-.98-.69-.33-.26-.68-.53-1.06-.75-.38-.21-.82-.36-1.25-.43-.39-.07-.8-.15-1.14-.31-.17-.09-.28-.2-.31-.33-.03-.11,.03-.26,.16-.44,.05-.07,.1-.14,.16-.21,.07-.09,.15-.19,.22-.3,.09-.13,.23-.4,.15-.67,0-.02-.03-.04-.05-.05,0,0-.01,0-.02,0h0s.01-.07,.02-.11c.07-.22,.15-.35,.34-.48-.02,.06-.03,.12-.04,.18,0,.08,0,.17,.02,.25,.11,.37,.36,.61,.58,.83,.18,.17,.38,.32,.57,.46,.05,.04,.1,.08,.15,.12l.7,.56c.25,.18,.5,.37,.82,.49,.25,.09,.5,.14,.75,.18,.05,0,.11,.02,.16,.03,.28,.06,.53,.12,.72,.31,.15,.13,.28,.28,.42,.43,.06,.07,.13,.14,.19,.2,.21,.22,.44,.44,.73,.59,.15,.07,.29,.11,.43,.11,.02,0,.04,0,.06,0,.04,0,.08,0,.12-.02-.02,.27-.05,.54-.1,.8-.04,.23-.1,.45-.16,.67-.01,.05-.02,.09-.04,.14-.1,.36-.22,.71-.34,1.08-.05,.15-.1,.3-.15,.45-.12,.38-.25,.79-.33,1.21-.1,.45-.15,.9-.18,1.24-.08,.83-.1,1.67-.13,2.48,0,.17,0,.33-.01,.5,0,.24-.01,.49-.02,.72-.02,.27-.12,.54-.22,.83-.03,.1-.07,.2-.1,.31-.08,.23-.12,.45-.13,.65,0,.2,0,.4,.02,.64,.02,.21,.06,.43,.16,.64,.04,.09,.12,.22,.26,.29,.06,.02,.11,.04,.17,.04,.03,0,.06,0,.09,0,.02,.08,.06,.17,.14,.26,.07,.07,.16,.12,.25,.12,.05,0,.09,0,.14-.02,.01,.02,.02,.03,.03,.04,.01,.01,.02,.03,.03,.04,.04,.05,.06,.09,.07,.13,0,.05,.05,.08,.09,.09h.03c.12,0,.23-.03,.32-.07,.02-.01,.03-.03,.05-.04-.15,.37-.22,.76-.22,1.15,0,.63,.22,1.25,.59,1.75-.01,0-.03,0-.04,0-.01,0-.03,0-.04-.01-.13-.03-.36-.05-.6-.05-.12,0-.24-.02-.36-.02-.06,0-.12,0-.18,0-.01,0-.02,0-.03,0-.07,0-.15,0-.22,0-.23,.03-.42,.11-.61,.19-.15,.04-.29,.07-.44,.07h-.03c-.42,0-.84-.14-1.2-.29-.22-.09-.45-.18-.66-.28-.19-.08-.37-.17-.57-.25-.11-.05-.22-.08-.32-.12-.11-.04-.21-.07-.3-.11-.06-.03-.08-.04-.08-.05t-.01-.03c0-.07,0-.19,.02-.27,.07-.43,.11-.88,.13-1.36,.03-.74,.06-1.71,.02-2.7-.04-.95-.15-1.86-.32-2.7-.16-.82-.35-1.76-.73-2.62-.04-.09-.08-.18-.12-.27-.14-.32-.28-.63-.38-.95-.07-.22-.11-.43-.14-.62-.02-.14-.03-.29-.04-.44,0-.08,0-.15-.02-.22-.03-.42-.05-.87,0-1.31,.02-.19,.07-.37,.16-.62,.08-.23,.15-.48,.04-.72-.01-.03-.04-.05-.07-.05,0,0-.02,0-.03,0-.04,.02-.06,.06-.04,.1,.07,.19,0,.38-.09,.59-.11,.24-.18,.46-.21,.66-.08,.45-.08,.92-.07,1.36v.11c.01,.18,.02,.38,.03,.57,.02,.22,.07,.45,.13,.69,.1,.35,.23,.68,.36,1,.04,.09,.07,.19,.11,.28,.33,.82,.51,1.71,.67,2.55,.16,.83,.25,1.69,.29,2.63,.04,.77,.04,1.59,0,2.66,0,.11-.01,.22-.02,.33,0,.03,0,.05,0,.08,0,0-.02,0-.02,0,0-.03,0-.07-.04-.09-.05-.03-.11-.06-.16-.09-.5-.27-1.02-.61-1.63-1.05-.27-.2-.55-.4-.86-.64-.26-.18-.38-.46-.34-.77,.02-.21,.08-.42,.14-.65,.03-.12,.07-.24,.09-.37,.08-.33,.11-.66,.14-.98v-.11c.06-.63,.06-1.32,.03-2.18-.04-.72-.1-1.45-.16-2.15-.06-.7-.12-1.43-.16-2.13-.04-.79,0-1.47,.13-2.1,.05-.31,.18-.6,.32-.91,.16-.35,.33-.72,.36-1.12,0-.04-.03-.08-.07-.08,0,0,0,0-.01,0,0,0,0,0-.01,0-.03,0-.06,.02-.06,.06-.07,.36-.24,.67-.41,1-.13,.25-.27,.52-.37,.8,0-.06,.02-.12,.03-.19Z"/><path class="cls-1" d="M66.53,29.11s-.01-.02-.01-.03c-.01-.03-.01-.04,0-.05,.01-.07-.03-.13-.09-.15h-.03c-.17-.05-.35-.09-.52-.12-.22-.05-.42-.09-.63-.15-.38-.1-.72-.21-1.03-.45-.01-.01-.03-.02-.05-.02s-.03,0-.05,.02c-.03,.02-.04,.06-.03,.09,.09,.24,.28,.42,.43,.52,.17,.12,.37,.21,.59,.28,.2,.06,.41,.1,.63,.11,.07,0,.15,0,.22,0,.11,0,.21,0,.32-.02,.02,.02,.03,.04,.05,.05,.02,.01,.04,.03,.06,.04,.02,0,.03,.02,.04,.03,.02,.02,.04,.03,.06,.03,.01,0,.02,0,.03,0,.03-.02,.05-.05,.04-.08,0-.04-.03-.08-.05-.11Z"/><path class="cls-1" d="M68.33,33.26c.1,.11,.22,.19,.39,.26,.03,.01,.06,.02,.08,.02,.06,0,.11-.02,.15-.06,.09-.08,.15-.17,.2-.25,.06-.09,.11-.18,.14-.29v-.03c.03-.1-.03-.18-.11-.19h-.05c-.07-.03-.16-.05-.24-.05-.01,0-.03,0-.04,0-.05-.03-.1-.05-.17-.07-.08-.02-.16-.03-.23-.03-.03,0-.06,0-.09,0-.07,0-.13,.06-.15,.12v.03c-.03,.07-.05,.17-.02,.28,.02,.1,.07,.19,.13,.26Zm.34-.36c.06,0,.11-.02,.17-.02,0,0,.02,0,.03,0,0,0,.02,.02,.03,.02-.04,.04-.08,.08-.12,.12-.05-.03-.08-.05-.11-.08-.02-.02-.03-.03-.04-.05,.01,0,.03,0,.04,0Z"/><path class="cls-1" d="M66.85,29.88s.01,0,.02,0c.02,0,.05,0,.07,0,.05,0,.09,.01,.14,.03h.02c.08,.03,.15,.06,.23,.09,.02,0,.04,.02,.07,.03,0,0-.01,0-.02,0-.02,.02-.03,.05-.02,.08,.04,.12,.12,.21,.23,.24,.04,.01,.07,.01,.11,.01,.09,0,.17-.03,.23-.06,.07-.03,.11-.1,.1-.17v-.02c-.01-.21-.13-.32-.24-.4-.11-.08-.23-.12-.33-.15-.07-.02-.14-.02-.21-.02-.05,0-.1,0-.15,.01-.08,.01-.26,.06-.33,.22-.01,.03,0,.06,.01,.08,.01,.02,.04,.03,.06,.03Z"/><path class="cls-1" d="M69.89,30.51s.04,0,.06,0c.19,0,.35-.11,.4-.27,0,0,0-.02,0-.03,0-.04-.04-.08-.08-.08h0s-.02,0-.03,0c-.03,.01-.07,.02-.11,.02-.02,0-.03,0-.05,0,0,0,.01,0,.02,0,.04-.01,.07-.02,.1-.03,.02,0,.04-.01,.07-.02l.06-.02c.1-.02,.21-.05,.32-.1,.03-.01,.04-.04,.05-.07,0-.03-.02-.06-.04-.07-.14-.08-.27-.12-.41-.14h-.05s-.06,0-.1,0c-.1,0-.23,.02-.38,.15,0,0,0,0,0,.01-.06,.08-.11,.16-.11,.31,0,.09,.05,.19,.11,.24,.07,.06,.14,.08,.19,.08Z"/><path class="cls-1" d="M69.34,35.84c.07,.01,.13,.02,.21,.02,.04,0,.07,0,.11,0,.2-.02,.38-.08,.54-.13,.14-.06,.28-.12,.42-.17l.06-.03s.04-.01,.07-.02c.04-.02,.09-.03,.11-.03,0,0,.03,0,.05,.08,0,.03,.04,.06,.07,.06h0s.06-.02,.07-.05c.02-.05,.04-.11,.03-.19,0-.08-.07-.16-.16-.2-.07-.03-.14-.04-.22-.04-.04,0-.09,0-.13,0-.18,.02-.35,.08-.5,.13h-.03s-.47,.19-.47,.19l-.06,.02c-.09,.03-.18,.06-.26,.06-.04,0-.07,0-.1-.01,0,0-.01,0-.02,0-.02,0-.05,0-.06,.03-.02,.03-.02,.06,0,.09,.05,.09,.15,.16,.29,.19Z"/><path class="cls-1" d="M66.22,35.44s.08,0,.12,0c.26,0,.46,.05,.61,.16,.15,.1,.28,.24,.42,.38,.05,.06,.11,.11,.17,.17,.21,.21,.45,.42,.74,.55,.21,.1,.45,.15,.7,.15,.07,0,.15,0,.22-.02,.04,0,.06-.03,.07-.07,0-.04-.02-.07-.05-.08-.24-.08-.51-.18-.74-.33-.22-.15-.41-.34-.61-.54-.04-.04-.07-.07-.11-.11-.18-.17-.36-.35-.62-.46-.13-.06-.28-.1-.43-.1-.02,0-.05,0-.07,0-.17,.02-.32,.06-.46,.14-.03,.02-.05,.05-.04,.09,0,.03,.04,.06,.08,.06h0Z"/><path class="cls-1" d="M66.66,34.02s.03,0,.03,0c.06,0,.1-.02,.12-.04,0,0,0,0,0,0,0,0,0,0,0,0l.08,.06s0,0,.02,.02c.01,.01,.03,.03,.05,.04,.02,.02,.04,.04,.06,.05,.05,.05,.12,.12,.21,.17,.07,.04,.15,.07,.23,.07,.08,0,.15-.02,.21-.06,.02-.01,.03-.04,.03-.07s-.01-.05-.04-.07c-.09-.05-.14-.1-.19-.17l-.02-.03c-.04-.06-.1-.15-.18-.23-.05-.05-.11-.09-.19-.13-.02,0-.03,0-.04-.01-.02,0-.04-.01-.07-.02-.03,0-.06-.01-.1-.01-.01,0-.02,0-.03,0-.07,0-.13,.02-.17,.06-.06,.05-.09,.1-.1,.13,0,0,0,0,0,.01-.02,0-.05,.01-.06,.03-.02,.02-.02,.05,0,.08,0,0,0,0,0,0,.02,.04,.04,.09,.12,.11Z"/><path class="cls-1" d="M67.6,38.71c.06,.02,.13,.04,.19,.06l.07,.02s-.04,.03-.07,.04c-.02,.01-.04,.04-.04,.07,0,.03,.02,.05,.04,.07,.06,.03,.14,.07,.25,.07,.03,0,.06,0,.09,0,.07-.01,.14-.05,.2-.1,.05-.05,.08-.1,.11-.17,.05-.1,0-.22-.09-.27h-.02c-.06-.04-.14-.08-.23-.1-.09-.02-.16-.03-.24-.03h0c-.19,0-.35,.05-.48,.15-.02,.02-.03,.04-.03,.07,0,.03,.02,.05,.04,.06,.08,.04,.16,.06,.21,.08Z"/><path class="cls-1" d="M69.96,39.15c.09,.06,.16,.08,.23,.08,0,0,.02,0,.03,0,.02,0,.04-.02,.06-.03,.01-.02,.02-.05,0-.07-.01-.04-.02-.07-.03-.1,0-.01,0-.02,0-.03,0,0,.02,0,.02,0,.04,0,.09-.01,.14-.02,.05,0,.1-.01,.16-.03,.02,0,.04-.02,.06-.04,.01-.02,.01-.04,0-.07-.06-.13-.18-.23-.34-.27-.03,0-.06-.01-.1-.01-.13,0-.27,.06-.36,.16l-.02,.02c-.07,.07-.07,.18,0,.26,.05,.06,.11,.12,.16,.16Z"/><path class="cls-1" d="M69.24,40.73s.06,0,.08,0c0,0,.01,0,.02,0,0,0,.02,.01,.02,.01,0,0,.03,.01,.03,.01,.01,0,.03,0,.04,0,.05,0,.1-.04,.12-.09l.02-.05c.08-.23,.08-.45,.07-.6,0-.11-.02-.21-.03-.29v-.05c-.03-.07-.04-.16-.07-.25,0-.03-.03-.05-.06-.05h-.02s-.04,0-.06,.02c-.07,.08-.05,.13-.05,.26-.03,.11,.01,.26,0,.36,0,.17-.18,.33-.13,.5-.02,.03-.03,.05-.04,.07,0,0,0,.02,0,.02-.02,.02-.02,.05,0,.08s.04,.04,.06,.04h0Z"/><path class="cls-1" d="M68.36,41.2s0,.05,0,.07c.01,.02,.03,.04,.06,.04,.04,0,.09,.03,.14,.05,.06,.02,.12,.05,.18,.06,.05,.02,.11,.02,.18,.03-.02,0-.03,.02-.04,.04-.01,0-.04,.01-.09,.01-.03,0-.05,.02-.06,.04-.05,.08-.04,.18,0,.26,.04,.07,.13,.11,.23,.11h.02c.1-.01,.17-.06,.21-.13,.04-.07,.05-.15,.02-.23,0-.03-.03-.04-.06-.05-.09-.02-.14-.03-.16-.04,.03,0,.06,0,.1,.01h.04c.09,0,.21,0,.34-.04,.1-.03,.28-.07,.37-.22,0-.01,.01-.03,.01-.05,0-.04-.03-.08-.08-.08h0c-.08,0-.13-.01-.19-.03-.04,0-.08-.02-.13-.02-.11-.02-.22-.03-.33-.03h-.06c-.09,0-.19,0-.29,.02-.05,0-.11,.02-.18,.04-.02,0-.04,.01-.05,.02-.05,.02-.13,.04-.16,.13Z"/><path class="cls-1" d="M67.35,45.01c.21-.01,.42-.09,.58-.24,.17-.14,.28-.33,.36-.48,.05-.1,.09-.2,.13-.3,.03-.06,.05-.12,.08-.18,.07-.15,.15-.29,.26-.42,.02-.03,.02-.06,0-.09-.01-.02-.04-.03-.07-.03,0,0-.01,0-.02,0-.19,.04-.38,.17-.52,.35-.11,.13-.19,.28-.26,.42l-.03,.06c-.06,.13-.13,.28-.23,.42-.1,.13-.22,.25-.34,.36-.02,.02-.03,.06-.02,.09,.01,.03,.04,.04,.07,.04h0Z"/><path class="cls-1" d="M66.84,47.43s-.04,.07-.02,.1c.01,.03,.04,.04,.07,.04,0,0,.02,0,.02,0,.04-.01,.08-.03,.12-.04,.6-.22,1.15-.63,1.54-1.18,.08-.12,.19-.29,.27-.47,.07-.17,.12-.32,.18-.47l.03-.09c.1-.27,.19-.53,.41-.71,.03-.02,.04-.07,.02-.1-.01-.03-.04-.04-.07-.04,0,0-.02,0-.02,0-.35,.11-.56,.44-.73,.77-.05,.09-.09,.18-.13,.27-.1,.21-.19,.4-.32,.57-.38,.54-.88,.98-1.32,1.34-.01,0-.02,.02-.03,.02Z"/><path class="cls-1" d="M61.84,41.99c.33-.12,.61-.18,.86-.18,.02,0,.04,0,.06,0,.29,.01,.56,.1,.79,.26,.22,.15,.41,.35,.56,.62,.13,.23,.23,.49,.3,.81,0,.03,.04,.06,.08,.06h0s.08-.02,.09-.06c.17-.66-.12-1.38-.72-1.8-.27-.19-.62-.29-.96-.29-.06,0-.11,0-.17,.01-.37,.04-.72,.2-.99,.45-.03,.03-.03,.07,0,.1,.02,.02,.04,.03,.07,.03,.01,0,.02,0,.03,0Z"/><path class="cls-1" d="M56.07,47.73c-.14,0-.27,.02-.4,.05-.03,0-.06,.04-.06,.08,0,.04,.03,.07,.06,.07,.3,.05,.56,.13,.8,.26,.23,.12,.45,.27,.68,.48,.16,.13,.31,.27,.47,.42,.27,.26,.56,.52,.89,.75,.01,0,.03,.01,.04,.01,.02,0,.04,0,.05-.02,.03-.03,.03-.07,.01-.1-.32-.48-.68-.99-1.16-1.41-.28-.24-.55-.4-.83-.49-.19-.07-.38-.1-.57-.1Z"/><path class="cls-1" d="M54.74,46.34c.35,.25,.69,.4,1.05,.45,0,0,0,0,.01,0,.03,0,.05-.02,.07-.04,.02-.03,0-.07-.01-.09-.22-.23-.46-.41-.69-.59l-.14-.11c-.16-.11-.28-.22-.39-.31l-.02-.02c-.11-.11-.18-.19-.14-.32,0-.03,0-.06-.03-.08-.02,0-.03-.01-.05-.01-.01,0-.03,0-.04,0-.11,.06-.17,.22-.15,.36,.01,.11,.05,.21,.12,.32,.12,.19,.28,.32,.42,.43Z"/><path class="cls-1" d="M56.11,45.52c.16,.17,.31,.29,.47,.38,.17,.09,.33,.14,.48,.14,.05,0,.09,0,.13-.01,.03,0,.06-.03,.06-.07,0-.03-.01-.06-.04-.08-.16-.09-.28-.2-.41-.31-.14-.13-.25-.25-.35-.36-.11-.12-.22-.25-.32-.39-.11-.15-.21-.28-.3-.44-.01-.02-.04-.04-.07-.04,0,0,0,0-.01,0-.03,0-.06,.03-.07,.07-.03,.18,0,.38,.1,.61,.07,.17,.17,.34,.32,.5Z"/><path class="cls-1" d="M51.4,57.26c0,.1,.02,.21,.02,.35,.01,.25,.02,.5,.02,.73,0,.46,0,.95,0,1.46,0,.15,0,.31,0,.46,0,.81-.02,1.65,.07,2.49,0,.04,.04,.07,.08,.07h0s.07-.03,.08-.07c.15-1.04,.23-2,.25-2.94,0-.41,0-.95-.07-1.49-.02-.24-.06-.48-.11-.74-.03-.15-.06-.26-.09-.37l-.02-.06c-.04-.11-.07-.23-.17-.31-.02,0-.03-.02-.05-.02s-.04,0-.05,.02c-.03,.03-.03,.07-.01,.1,.04,.06,.05,.14,.06,.23,0,.03,0,.06,.01,.09Z"/><path class="cls-1" d="M56.02,70.09s0,0-.01,0c-.33,.08-.6,.12-.88,.13h-.06c-.11,0-.23,0-.35-.03-.15-.02-.28-.07-.42-.13,0,0-.01,0-.02,0-.01,0-.02,0-.03,0-.01,0-.02,.02-.01,.04,.03,.08,.1,.16,.18,.23,.02,.01,.03,.03,.04,.04,.05,.04,.1,.08,.16,.11,.16,.08,.34,.12,.51,.12,.17,0,.35-.04,.5-.12,.07-.04,.14-.08,.2-.13,.08-.05,.14-.11,.19-.18,0,0,.01-.02,.02-.03s0-.03,0-.04c0,0-.02-.01-.03-.01Z"/><path class="cls-1" d="M67.09,69.45s-.01,0-.02,0c-.18,.07-.36,.14-.53,.17-.14,.03-.27,.04-.4,.04-.04,0-.08,0-.12,0-.18,0-.36-.03-.55-.07-.19-.03-.38-.06-.58-.07h0s-.03,0-.04,.02c0,.02,0,.03,.01,.04,.07,.05,.14,.1,.22,.14,.09,.06,.2,.11,.31,.15,.19,.08,.4,.13,.61,.14h.06c.09,0,.19,0,.28-.02,.04,0,.07-.02,.1-.03,.03,0,.05-.02,.07-.02,.04-.02,.09-.02,.12-.04,.12-.05,.23-.13,.32-.22,.06-.06,.11-.12,.16-.19,0-.01,0-.03,0-.04,0,0-.02-.01-.03-.01Z"/><path class="cls-1" d="M63.57,64.91c-.05-.06-.14-.1-.23-.1h-.02c-.13,.02-.2,.07-.25,.11l-.02,.02c-.12,.12-.21,.22-.29,.32-.05,.06-.1,.12-.15,.18-.32,.37-.61,.54-.9,.54h-.02s-.03,0-.06-.01c-.04-.02-.09-.04-.13-.06l-.28-.14-.08-.04c-.16-.08-.32-.17-.49-.25-.18-.08-.39-.18-.62-.23-.06-.01-.11-.02-.16-.02-.1,0-.17,.03-.23,.08-.11,.13-.07,.28-.05,.38,0,.04,.04,.06,.08,.06h.01s.01,0,.02,0c.17,.32,.41,.6,.68,.84,.37,.31,.8,.48,1.23,.48,.02,0,.03,0,.05,0,.42-.02,.84-.16,1.29-.43,.22-.14,.39-.29,.53-.47,.17-.22,.27-.48,.25-.73,0-.12-.02-.24-.07-.39-.02-.05-.05-.1-.09-.14Z"/><path class="cls-1" d="M69.61,64.88c-.16-.09-.32-.17-.49-.25-.22-.1-.41-.18-.62-.23-.06,0-.11-.02-.16-.02-.1,0-.17,.03-.24,.08-.11,.14-.07,.28-.05,.38,0,.04,.04,.06,.08,.06,0,0,0,0,.01,0,0,0,.01,0,.02,0,.17,.32,.41,.61,.68,.84,.37,.31,.8,.48,1.22,.48h.05c.42-.02,.84-.16,1.29-.43,.22-.14,.39-.29,.53-.47,.18-.22,.27-.48,.26-.73,0-.12-.01-.23-.07-.39-.02-.06-.05-.1-.09-.14-.05-.06-.14-.1-.23-.1h-.02c-.13,.02-.2,.07-.25,.11l-.02,.02c-.12,.12-.21,.22-.29,.33-.05,.06-.09,.12-.14,.17-.31,.36-.61,.54-.9,.54h-.01s-.03,0-.07-.01c-.04-.02-.09-.04-.13-.06l-.27-.14-.08-.04Z"/><path class="cls-1" d="M55.51,53.05c.07,.05,.15,.08,.23,.08,.02,0,.04,0,.06,0,.06,0,.11,0,.13-.01,.11-.02,.23-.06,.35-.16,.1-.09,.18-.22,.21-.36,.02-.11,.02-.23,0-.35-.04-.19-.1-.38-.2-.57-.12-.25-.27-.47-.44-.68,0,0,0,0,0,0-.06-.08-.12-.16-.18-.23-.01-.02-.04-.03-.06-.03-.01,0-.02,0-.04,0-.03,.02-.05,.06-.04,.09,.05,.16,.12,.31,.18,.46-.17,.13-.26,.34-.33,.49-.08,.21-.12,.4-.13,.58,0,.12,0,.23,.03,.33,.03,.15,.11,.27,.23,.35Zm.18-1.18c.02-.13,.05-.27,.11-.4,.05,.12,.1,.24,.14,.37,.05,.15,.11,.32,.12,.47,.02,.14,0,.25-.06,.29-.05,.04-.14,.07-.21,.07-.02,0-.03,0-.03,0,0,0,0,0-.01,0-.02-.01-.08-.12-.09-.3,0-.16,0-.32,.03-.5Z"/><path class="cls-1" d="M54.05,52.11c.02,.05,.05,.11,.11,.17,.05,.05,.15,.12,.26,.12,.01,0,.03,0,.04,0,.2-.04,.27-.15,.32-.22,0-.01,.02-.03,.03-.04,.06-.09,.1-.18,.13-.28,.06-.19,.09-.37,.1-.54,.02-.37-.04-.66-.19-.88-.03-.05-.07-.1-.11-.14-.01-.01-.03-.02-.05-.02-.02,0-.03,0-.04,.01-.02,.01-.03,.03-.03,.05,0,0,0,0,0,0,0,0,0-.01,0-.01-.01-.03-.04-.06-.07-.06h0s-.07,.04-.07,.07c-.02,.23-.12,.43-.22,.64-.04,.08-.08,.16-.11,.24-.07,.16-.14,.34-.14,.56,0,.06,.01,.12,.03,.18,.01,.05,.03,.1,.05,.15Zm.43-.74s.03-.09,.04-.12c.08-.26,.17-.55,.11-.83,.1,.29,.06,.6,.01,.86-.03,.13-.07,.29-.13,.43-.02,.05-.04,.11-.07,.15,0,0,0-.02-.01-.03,0-.02,0-.05-.01-.07-.01-.1,.03-.24,.06-.39Z"/><path class="cls-1" d="M46.68,98.73c.21,.16,.4,.24,.59,.39,.06,.05,.12,.11,.18,.18,.21,.25,.38,.53,.54,.82,.26,.48,.52,1.18,.51,1.72l.41-.13s.09,0,.12,0c.1,.01,.17,.06,.28,.08,.19,.04,.36,.08,.54,.08,.11,0,.22-.02,.33-.06-.04-.54,.64-.54,.79-.96,.16-.43-.43-.5-.44-.92,0-.47,.89-.67,.76-1.12-.11-.36-.84-.26-.61-.78,.14-.3,.64-.38,.45-.74-.16-.29-.69-.21-.78-.49-.11-.34,.38-.61,.46-.9,.1-.36-.18-.45-.5-.61-1.1-.57,.56-.84-.2-1.41-.22-.16-.82-.26-.61-.55,.16-.22,.65-.06,.68-.43-.74-.35-1.75-1.53-2.62-1.49-.29,.02-.56,.17-.8,.54-.15,.23-.39,.48-.52,.74-.04,.09-.08,.18-.09,.27-.04,.27,.02,.57-.07,.84-.11,.31-.24,.45-.22,.78,.01,.26,.04,.44-.04,.72-.08,.27-.37,.7-.33,.98,.03,.27,.37,.6,.45,.85,.18,.62,.18,1.15,.76,1.61Z"/><path class="cls-1" d="M40.29,96.41c.26,.07,.52,.15,.65,.23,.29,.18,.49,.48,.52,.62-.04,0-.11,.02-.22,0-.05,0-.1-.01-.16-.02-.32-.04-.75-.11-1.05,.16-.11,.1-.24,.29-.23,.6,.02,.45,.47,.78,.84,1.04,.07,.05,.13,.1,.18,.13,.04,.03,.1,.08,.18,.14,1.01,.77,1.26,1.11,1.31,1.26-.04,0-.08,0-.12,0-.19-.02-.46-.04-.69,.15-.15,.13-.23,.33-.24,.6-.01,.53,.41,.79,.71,.99,.13,.08,.27,.17,.32,.24,.09,.13,.11,.19,.12,.19-.01,.03-.07,.09-.11,.14-.05,.06-.11,.13-.17,.22-.35,.5-.15,.85-.01,1.09,.07,.12,.13,.23,.15,.38,.03,.19,.19,.33,.38,.33,.02,0,.03,0,.05,0,.21-.03,.36-.22,.33-.44-.04-.3-.16-.51-.25-.66-.03-.05-.08-.13-.08-.15,0,0,0-.03,.05-.11,.05-.07,.09-.12,.13-.17,.26-.32,.46-.66,.01-1.27-.14-.2-.35-.33-.54-.45-.2-.13-.35-.23-.35-.31h0s.05,0,.08,0c.2,.02,.51,.05,.76-.19,.16-.15,.23-.35,.22-.56-.03-.57-.68-1.17-1.63-1.89-.07-.05-.12-.09-.16-.12-.06-.05-.13-.1-.22-.16-.14-.1-.46-.33-.51-.43,.1-.01,.29,.02,.39,.03,.07,.01,.14,.02,.19,.02,.74,.07,.97-.28,1.04-.5,.18-.53-.31-1.23-.86-1.56-.22-.13-.52-.22-.84-.31-.41-.12-1.04-.3-1.1-.55-.05-.21-.25-.34-.46-.29-.21,.05-.34,.25-.29,.46,.16,.7,.98,.94,1.64,1.13Z"/><path class="cls-1" d="M39.01,99.37c-.76-.05-1.45,.23-1.8,.74-.12,.18-.08,.42,.1,.54,.18,.12,.42,.08,.54-.1,.19-.27,.64-.43,1.12-.41,.45,.03,.81,.21,.95,.48,.05,.1,.07,.16,.07,.19-.06,.02-.22,.04-.44-.02-.31-.07-.53-.23-.59-.34-.1-.19-.33-.26-.52-.16-.19,.1-.27,.33-.17,.52,.25,.48,.95,.77,1.49,.79,.02,0,.05,0,.07,0,.38,0,.67-.13,.82-.38,.11-.18,.2-.49-.05-.97-.27-.52-.87-.85-1.59-.89Z"/><path class="cls-1" d="M19.65,115.84c1.01,3,2.55,5.83,4.22,7.78,.77,.9,1.32,1.23,2.04,1.23,.32,0,.64-.06,1.05-.15,.2-.04,.42-.08,.68-.13,.16-.03,.35-.04,.54-.04,1.84,0,4.64,1.2,6,2.29,.69,.55,1.25,1.39,1.8,2.21,.87,1.3,1.76,2.65,3.25,2.98,.3,.07,.58,.1,.85,.1,1.72,0,2.6-1.34,3.38-2.52,.17-.25,.34-.52,.52-.76,.17-.23,.33-.46,.49-.67,.92-1.25,1.79-2.42,2.42-3.99,.1-.25,.2-.5,.3-.74,.56-1.4,1.04-2.61,1.95-3.85,.41-.55,.65-1.29,.88-2.01,.24-.75,.49-1.52,.91-1.97,.34-.38,.78-.51,1.29-.67,.48-.15,1.02-.32,1.56-.72,.94-.69,1.9-2.93,2.03-4.79,.09-1.24-.17-2.22-.78-2.82l-.04-.04c-.21-.21-.38-.38-.49-.66-.02-.08-.06-.48-.08-.74-.03-.36-.05-.59-.08-.71-.13-.68,.03-1.11,.29-1.84l.07-.19c.6-1.68,.79-2.53,.92-4.25,.78,.15,1.75,.16,2.18,.16,2.35,0,4.08-.57,5.3-1.73,.45-.43,.75-.8,.75-1.23,0-.46-.35-.79-.83-1.24l-.14-.14c-.56-.53-1.14-1.08-1.84-1.57-2.72-1.9-5.58-2.83-9.28-2.99-1.31-.06-2.36-.49-3.47-.95-1.21-.5-2.47-1.02-4.08-1.02-.33,0-.67,.02-1.01,.07-.74,.1-3.28,.46-5.05,1.11-.22,.08-.42,.16-.59,.23-1.04,.4-1.2,.5-2.48,.03-.4-.15-.83-.22-1.28-.22-1.24,0-2.42,.54-3.56,1.07-.38,.17-.73,.34-1.08,.48-.54,.22-1.17,.33-1.83,.45-1.32,.24-2.69,.49-3.59,1.61-.74,.92-1.09,2.05-1.43,3.15-.22,.72-.43,1.41-.75,2.02-.42,.82-.96,1.56-1.49,2.28-.73,1-1.48,2.03-1.94,3.28-1.5,4.08-.13,8.05,1.19,11.89,.11,.31,.21,.62,.32,.93Zm27.71,3.69c-.66,1.1-.98,2.26-1.78,3.33-1.33,1.76-4.73,2.99-6.74,1.79-1.17-.7-.94-2.02-1.58-3.1-.69-1.19-1.64-1.65-1.84-3.11-.18-1.3-.06-2.28-1.18-3.24-1.01-.86-2.2-1.04-2.7-2.43-.69-1.9,.26-3.32,1.09-4.97,.51-1.03,.56-1.78-.25-2.62-.36-.37-1.39-.92-1.38-1.5,.01-.78,.54-.29,.9,0,.85,.7,1.45,1.64,2.21,2.42,1.2,1.24,3.61,2.97,4.74,4.25,.77,.88-.27,1.47,.82,2.45,1,.89,1.53,.17,2.29,.66,.96,.62,2.27,1.66,3.42,1.92,.78,.18,2.14-.19,2.77,.41,.86,.81-.3,2.92-.78,3.73Zm-6.76-10.71c.14,.1,.17,.29,.07,.43-.06,.09-.16,.13-.25,.13-.06,0-.13-.02-.18-.06-6.9-4.93-6.46-7.75-6.44-7.87,.03-.17,.19-.28,.36-.25,.17,.03,.28,.19,.25,.36,0,.05-.27,2.64,6.19,7.25Zm.37,1.59l.12,.08c.82,.15,.78,2.07-.38,1.7-.42-.13-.73-.54-.63-1.13,.04-.23,.1-.47,.3-.6,.22-.14,.43,0,.59-.05Zm7.19,3.49c-2.99-.19-2.95-.97-2.95-.97,0,0,2.83-2.06,7.38-.39,0,0-1.44,1.55-4.43,1.36Zm5.24-1.85c-6.82-2.02-8.91,.81-9.54,1.16-.63,.36-1.36-.55-1.36-.55,1.52-1.67-.26-3.13-.26-3.13,3.2-6.26,10.59-4.29,10.59-4.29,0,.35,.47,1.51,.47,1.51,2.41,2.22,.11,5.3,.11,5.3Zm6.45-14.95c-.63,.09-1.46,.19-2.14,.14-.58-.04-2.93-.17-2.72-.5,.46-.74,.19-2.1,.19-2.1,.58,.66,.69,.01,1.28-.04,1.83-.16,2.19,.48,2.76,.66,1.36,.43,2.83,1.52,.62,1.84Zm-.03-4.38c.19,.12,.38,.24,.56,.37,1.33,.96,1.72,1.93,1.84,2.4-2.93-1.51-4.75-1.83-5.76-1.83-.75,0-1.16,.17-1.34,.27-.19-.14-.65-.57-.57-1.41,.05-.61-.27-1.26-.5-1.62,2.41,.36,4.35,.97,5.76,1.82Zm-23.45-1.51c.27-1.09,3.5-1.39,4.54-1.65,1.65-.41,3.52-.62,5.21-.3,1.62,.3,3.11,.88,4.63,1.31,.68,.2,1.76,.21,2.29,.78,.57,.61,.4,1.61,.84,2.32,.51,.8,1.13,.83,.85,1.93-.09,.37-.38,.6-.46,1.01-.08,.43,.1,.85,.06,1.25-.15,1.52-.29,3.8-.91,4.94-.58,1.06-2.28,.52-4.38,.37-1.68-.12-2.89,.74-4.35,1.58-.83,.47-1.41,.92-2.09,1.61-.55,.56-1.04,1.29-1.86,1.1-.65-.16-1.35-1.07-1.87-1.47-.58-.44-1.22-.85-1.77-1.36-.56-.53-1.05-1.09-1.29-1.84-.18-.57-.02-3.37-.51-3.4-1.35-.1-1.14,.41-1.97,.61-.65,.16-1.68-.31-2.29-.57-2.28-1.01-.33-2.63,.93-3.08,1.09-.39,1.46-.4,2.52-.04,.57,.19,1.5,.77,1.98,.28,.32-.33-.4-1.07-.4-1.07,.23-.65,1.45-.49,1.91-.97,1.34-1.39-2.07-1.58-1.62-3.33Zm-9.12,5.14c1.08-2.33,3.65-4.99,6.49-5.56,.11-.02,.21-.03,.31-.03,1.55,0,2.06,2.59,2.17,3.29-5.39,.05-8.65,4.57-9.38,5.68-.35-.87-.21-2.05,.41-3.39Z"/><path class="cls-1" d="M47.32,108.22c-.41-.16-.87-.06-1.21,.28-.15,.15-.16,.4,0,.55,.15,.16,.4,.16,.55,0,.12-.12,.27-.16,.38-.11,.1,.04,.16,.14,.16,.27,0,.05-.05,.16-.12,.25-.07-.07-.17-.11-.28-.11-.22,0-.38,.18-.38,.4,0,.36,.17,.52,.3,.59,.05,.03,.14,.06,.25,.06,.1,0,.22-.03,.35-.11,.32-.19,.67-.7,.65-1.11-.01-.44-.26-.81-.65-.97Z"/><path class="cls-1" d="M43.58,116.5c-.59-.06-1.22,.27-1.66-.4-.35-.54-.44-1.03-1.17-.66-.68,.34-1.14,.1-1.62-.42-.41-.46-.81-.92-1.09-1.47-.13-.26-.76-1.64-1.13-.89l.2-.12c-.91,.68-.72,2.03-.34,2.95,.22,.54,.44,1.17,.73,1.67,.16,.27,.39,.46,.55,.74,.17,.29,.21,.65,.37,.93,.3,.51,.39,.03,.78,.16,.25,.09,.3,.54,.6,.64,.4,.14,.42-.28,.81-.22,.31,.04,.55,.46,.7,.7,.28,.47,.31,1.23,.9,1.47,.41,.16,.46-.19,.74-.21,.34-.03,.36,.5,.73,.46,.66-.07,.67-1.23,.73-1.67,.1-.71,.17-1.39,.05-2.1-.09-.57-.17-1.48-.87-1.55Z"/><path class="cls-1" d="M52.03,108.31c-.38,.13-.63,.52-.64,1,0,.39,.28,.94,.6,1.13,.09,.05,.19,.08,.29,.08,.08,0,.16-.02,.23-.06,.18-.1,.28-.3,.29-.59,0-.21-.17-.39-.38-.4-.06,0-.13,.02-.19,.05-.03-.07-.06-.14-.06-.19,0-.18,.08-.27,.12-.29,.04-.01,.1,.03,.16,.1,.14,.16,.38,.19,.55,.05,.17-.14,.19-.38,.05-.55-.27-.33-.66-.46-1.01-.33Z"/></g><g><path class="cls-1" d="M154.31,60.11c0-1.75,.24-3.28,.73-4.59s1.16-2.42,2.02-3.3c.86-.88,1.86-1.55,3-2,1.14-.45,2.37-.67,3.69-.67,.97,0,1.77,.05,2.41,.14s1.2,.21,1.69,.34c.49,.13,1,.24,1.53,.34l-.08,2.03c-.58-.26-1.31-.51-2.2-.73-.89-.22-2.05-.34-3.48-.34-1.27,0-2.43,.32-3.48,.97-1.05,.64-1.89,1.6-2.52,2.86-.63,1.26-.94,2.82-.94,4.68,0,1.7,.26,3.21,.79,4.53s1.31,2.36,2.33,3.11c1.02,.75,2.28,1.13,3.76,1.13,1.09,0,2.06-.1,2.91-.3,.85-.2,1.47-.39,1.86-.58v-6.28l.63,.44-4.85-.16v-1.62h6.42v8.83c-.28,0-.61,.09-.99,.23-.38,.15-.83,.31-1.36,.5-.53,.19-1.18,.35-1.92,.49s-1.63,.21-2.67,.21c-1.95,0-3.61-.45-4.99-1.34-1.38-.9-2.44-2.12-3.17-3.66-.74-1.55-1.1-3.3-1.1-5.25Z"/><path class="cls-1" d="M183.3,70.37c-1.87,.04-3.49-.4-4.84-1.3s-2.39-2.15-3.11-3.74c-.72-1.6-1.06-3.42-1.02-5.47,.05-2.27,.49-4.16,1.34-5.69s1.97-2.68,3.37-3.45c1.4-.77,2.96-1.16,4.68-1.17,1.79,0,3.35,.42,4.67,1.28,1.32,.86,2.33,2.07,3.04,3.63,.7,1.56,1.03,3.38,.99,5.46-.05,2.26-.47,4.16-1.26,5.7-.79,1.54-1.87,2.71-3.23,3.5-1.36,.8-2.9,1.21-4.61,1.25Zm.05-1.76c2.02-.02,3.65-.78,4.88-2.28s1.87-3.68,1.89-6.53c0-1.56-.25-2.99-.73-4.29-.49-1.29-1.22-2.33-2.18-3.1s-2.16-1.15-3.59-1.14c-1.31,0-2.49,.34-3.54,.98-1.05,.64-1.89,1.61-2.51,2.9-.62,1.29-.94,2.9-.95,4.84,0,1.55,.24,2.99,.74,4.29s1.25,2.36,2.26,3.15,2.24,1.18,3.72,1.17Z"/><path class="cls-1" d="M197.37,70.15v-20.41l1.23,.03c.57,0,1.08-.02,1.53-.05,.45-.03,.91-.06,1.39-.1s1.02-.05,1.64-.05c1.49,0,2.73,.19,3.72,.57,.99,.38,1.73,.93,2.21,1.64s.73,1.57,.73,2.56c0,.65-.11,1.31-.32,2s-.56,1.29-1.04,1.82-1.12,.9-1.91,1.1c.82,.04,1.59,.27,2.3,.7,.71,.43,1.28,1,1.71,1.72,.43,.72,.65,1.52,.65,2.41,0,1.29-.25,2.4-.76,3.34-.51,.94-1.35,1.66-2.52,2.16-1.18,.5-2.76,.75-4.75,.75-.74,0-1.53-.03-2.37-.08s-1.59-.09-2.27-.12h-1.18Zm2.25-11.36c.21,.03,.52,.05,.93,.06,.41,0,.85,.01,1.33,.01s.93,0,1.36,0c.42,0,.77,0,1.02,0,1.06-.08,1.89-.49,2.48-1.23s.89-1.72,.89-2.93c0-1.28-.46-2.18-1.36-2.7-.91-.52-2.09-.78-3.54-.78-.25,0-.57,0-.97,.02s-.79,.03-1.19,.05c-.39,.02-.71,.05-.95,.09v7.43Zm0,9.63c.37,.06,.78,.11,1.21,.15,.43,.04,.87,.06,1.32,.08,.44,.01,.87,.02,1.28,.02,1.76,0,3.11-.32,4.06-.95,.95-.63,1.43-1.75,1.43-3.35,0-1.36-.43-2.35-1.3-2.95-.87-.6-2.07-.92-3.61-.95h-2.32c-.46,0-.87,0-1.25,.01-.38,0-.65,.02-.82,.04v7.9Z"/><path class="cls-1" d="M216.46,70.15v-20.38h2.28v20.38h-2.28Z"/><path class="cls-1" d="M225.1,70.15v-20.38h11.49v1.76h-9.24v7.21h6.75v1.76h-6.75v7.87h10.2v1.78h-12.45Z"/><path class="cls-1" d="M244.08,70.15h-2.25v-20.38c.4,0,.71-.02,.93-.02,.21,0,.34,0,.39,0,.65,0,1.4-.03,2.24-.08s1.71-.08,2.59-.08c1.03,0,1.98,.1,2.83,.3s1.59,.52,2.22,.96c.62,.44,1.1,1.02,1.44,1.73,.34,.72,.51,1.59,.51,2.63,0,1.17-.22,2.17-.67,3-.44,.83-1.06,1.49-1.84,1.98-.79,.49-1.7,.8-2.73,.94-.44,.06-.92,.11-1.45,.13s-1.14,.03-1.82,.03c-.69,0-1.48-.01-2.37-.02v8.89Zm0-10.48c.22,.02,.58,.03,1.09,.05,.51,.01,1.02,.02,1.54,.03,.52,0,.91,0,1.18,0,1.43-.02,2.58-.39,3.45-1.12,.87-.73,1.31-1.84,1.32-3.32,0-.97-.18-1.75-.53-2.34-.36-.59-.91-1.03-1.65-1.3-.75-.27-1.7-.41-2.86-.41-.6,0-1.24,.02-1.91,.05s-1.21,.09-1.62,.17v8.2Zm9.74,10.48c-.11-.14-.21-.3-.3-.49-.09-.19-.23-.48-.41-.88-.3-.62-.62-1.34-.97-2.17-.34-.82-.72-1.63-1.12-2.42-.41-.79-.86-1.46-1.35-2.02-.49-.56-1.04-.88-1.63-.96l.93-.69,1.37,.16c.57,.17,1.09,.57,1.58,1.18,.49,.61,.95,1.33,1.37,2.16,.42,.83,.83,1.66,1.21,2.51s.76,1.59,1.12,2.24c.14,.26,.27,.5,.4,.73,.13,.23,.25,.45,.37,.64h-2.58Z"/><path class="cls-1" d="M260.68,70.15v-20.38h2.11l9.38,14.18,2.74,4.8h-.79l-.19-5.65v-13.33h2.06v20.38h-2.06l-9.22-13.85-3.04-5.18h.91l.19,6.03v13h-2.08Z"/><path class="cls-1" d="M289.72,70.37c-1.87,.04-3.49-.4-4.84-1.3s-2.39-2.15-3.11-3.74c-.72-1.6-1.06-3.42-1.02-5.47,.05-2.27,.49-4.16,1.34-5.69s1.97-2.68,3.37-3.45c1.4-.77,2.96-1.16,4.68-1.17,1.79,0,3.35,.42,4.67,1.28,1.32,.86,2.33,2.07,3.04,3.63,.7,1.56,1.03,3.38,.99,5.46-.05,2.26-.47,4.16-1.26,5.7-.79,1.54-1.87,2.71-3.23,3.5-1.36,.8-2.9,1.21-4.61,1.25Zm.05-1.76c2.02-.02,3.65-.78,4.88-2.28s1.87-3.68,1.89-6.53c0-1.56-.25-2.99-.73-4.29-.49-1.29-1.22-2.33-2.18-3.1s-2.16-1.15-3.59-1.14c-1.31,0-2.49,.34-3.54,.98-1.05,.64-1.89,1.61-2.51,2.9-.62,1.29-.94,2.9-.95,4.84,0,1.55,.24,2.99,.74,4.29s1.25,2.36,2.26,3.15,2.24,1.18,3.72,1.17Z"/><path class="cls-1" d="M154.4,95.61v-12.37h.26c.14,0,.29,0,.44,0s.24,0,.27-.01c.26,0,.54,0,.84-.03s.61-.03,.94-.05c.32-.02,.64-.03,.96-.03,1.96,0,3.43,.52,4.4,1.56,.97,1.04,1.46,2.5,1.46,4.38,0,1.35-.24,2.53-.71,3.54s-1.16,1.78-2.06,2.33-1.99,.82-3.27,.8c-.35-.01-.77-.03-1.26-.07-.49-.03-.95-.05-1.36-.05-.06,0-.15,0-.29-.01-.14,0-.27,0-.4,0h-.21Zm1.36-1.05c.32,.05,.7,.09,1.15,.12,.45,.03,.86,.04,1.21,.03,.87-.01,1.63-.21,2.29-.59,.66-.39,1.18-.98,1.55-1.78,.37-.8,.56-1.82,.57-3.07,0-1.21-.17-2.19-.52-2.95-.36-.76-.89-1.31-1.59-1.66-.7-.35-1.58-.53-2.63-.53-.39,0-.75,.01-1.09,.03s-.65,.05-.94,.08v10.32Z"/><path class="cls-1" d="M166.3,95.61v-12.37h6.97v1.07h-5.61v4.38h4.09v1.07h-4.09v4.78h6.19v1.08h-7.56Z"/><g><path class="cls-1" d="M191.32,86.01c-.48-.48-1.07-.93-1.76-1.34s-1.47-.81-2.35-1.21c-.82-.37-1.49-.72-2.01-1.02-.52-.31-.9-.62-1.14-.93-.24-.32-.36-.68-.36-1.09,0-.34,.1-.64,.3-.89,.2-.26,.51-.45,.92-.6s.94-.21,1.58-.21c.9,0,1.77,.14,2.63,.4,.85,.27,1.49,.56,1.9,.88l.8-3.81c-.37-.22-1.03-.47-2-.75s-2.22-.43-3.76-.43c-1.08,0-2.06,.12-2.95,.35-.89,.23-1.65,.58-2.3,1.05-.64,.47-1.14,1.05-1.49,1.75-.35,.7-.53,1.51-.53,2.45,0,1.09,.22,2.03,.66,2.82,.44,.79,1.02,1.47,1.74,2.03,.72,.56,1.51,1.05,2.37,1.46,1.01,.48,1.83,.89,2.43,1.21s1.04,.63,1.31,.94c.26,.31,.4,.68,.4,1.12,0,.6-.22,1.04-.65,1.32-.43,.27-1.13,.41-2.09,.41-.71,0-1.42-.07-2.12-.21-.7-.14-1.34-.31-1.91-.51-.58-.2-1.03-.4-1.37-.59l-.63,3.98c.27,.16,.72,.35,1.37,.54,.65,.2,1.41,.37,2.3,.51,.88,.14,1.81,.21,2.78,.21,1.6,0,2.95-.25,4.06-.75,1.11-.5,1.95-1.2,2.52-2.11,.57-.9,.86-1.97,.86-3.18,0-.8-.13-1.52-.38-2.13s-.62-1.17-1.1-1.65Z"/><path class="cls-1" d="M209.78,76.19c-1.38-.84-3.04-1.23-4.96-1.17-1.88,.06-3.56,.44-5.02,1.15s-2.62,1.81-3.46,3.31c-.85,1.49-1.29,3.45-1.34,5.86-.04,2.16,.31,4.03,1.05,5.62,.74,1.59,1.81,2.81,3.24,3.66,1.42,.85,3.14,1.26,5.15,1.23,1.86-.04,3.49-.42,4.91-1.15,1.42-.73,2.53-1.86,3.35-3.39,.81-1.53,1.24-3.5,1.29-5.91,.04-2.15-.31-4.01-1.04-5.58-.73-1.57-1.78-2.78-3.16-3.61Zm-2.15,14.37c-.76,1.07-1.8,1.6-3.11,1.6-.96,0-1.76-.29-2.39-.86-.64-.58-1.11-1.37-1.43-2.37-.32-1.01-.48-2.16-.48-3.46,0-1.68,.2-3.01,.61-3.98,.41-.97,.95-1.66,1.64-2.07,.69-.41,1.44-.62,2.28-.62,.91,0,1.67,.27,2.26,.81s1.04,1.29,1.33,2.26c.29,.97,.44,2.09,.44,3.37,0,2.48-.38,4.25-1.14,5.31Z"/><polygon class="cls-1" points="229.91 84.2 230.46 89.38 229.06 86.42 222.09 75.23 217.32 75.23 217.32 95.61 221.96 95.61 221.96 86.81 221.32 81.59 222.81 84.7 229.42 95.61 234.54 95.61 234.54 75.23 229.91 75.23 229.91 84.2"/><path class="cls-1" d="M252.67,76.19c-1.38-.84-3.04-1.23-4.96-1.17-1.88,.06-3.56,.44-5.02,1.15s-2.62,1.81-3.46,3.31c-.85,1.49-1.29,3.45-1.34,5.86-.04,2.16,.31,4.03,1.05,5.62,.74,1.59,1.81,2.81,3.24,3.66,1.42,.85,3.14,1.26,5.15,1.23,1.86-.04,3.49-.42,4.91-1.15,1.42-.73,2.53-1.86,3.35-3.39,.81-1.53,1.24-3.5,1.29-5.91,.04-2.15-.31-4.01-1.04-5.58-.73-1.57-1.78-2.78-3.16-3.61Zm-2.15,14.37c-.76,1.07-1.8,1.6-3.11,1.6-.96,0-1.76-.29-2.39-.86-.64-.58-1.11-1.37-1.43-2.37-.32-1.01-.48-2.16-.48-3.46,0-1.68,.2-3.01,.61-3.98,.41-.97,.95-1.66,1.64-2.07,.69-.41,1.44-.62,2.28-.62,.91,0,1.67,.27,2.26,.81s1.04,1.29,1.33,2.26c.29,.97,.44,2.09,.44,3.37,0,2.48-.38,4.25-1.14,5.31Z"/><path class="cls-1" d="M276.23,94.13c-.38-.67-.73-1.37-1.04-2.11-.31-.74-.62-1.44-.94-2.13s-.66-1.28-1.04-1.8c-.22-.3-.47-.55-.73-.76,.22-.1,.43-.21,.63-.33,.81-.49,1.45-1.18,1.91-2.08,.46-.9,.69-2.05,.69-3.43,0-1.28-.22-2.34-.67-3.18-.45-.84-1.04-1.5-1.78-1.98-.74-.48-1.56-.82-2.45-1.01-.9-.2-1.79-.3-2.69-.3-1.45,0-2.66,.04-3.61,.11-.96,.07-1.8,.11-2.53,.11h-1.76v20.38h5.1v-7.21c.91,0,1.64-.02,2.2-.05,.4,.03,.74,.21,1.02,.56,.29,.37,.55,.85,.77,1.43s.45,1.21,.67,1.89c.22,.67,.47,1.31,.74,1.93,.19,.44,.34,.76,.43,.95,.1,.2,.2,.36,.31,.5h5.62c-.14-.25-.28-.49-.43-.74-.15-.25-.29-.49-.42-.74Zm-10.18-9.2c-.31-.02-.56-.04-.74-.07v-6.01c.32-.08,.67-.14,1.05-.19s.75-.06,1.12-.06c.9,0,1.58,.14,2.06,.43s.81,.65,.99,1.1,.27,.93,.27,1.43c0,.94-.24,1.74-.71,2.41-.48,.66-1.23,.99-2.28,.99-.22,0-.49,0-.81,0-.32,0-.64-.02-.95-.03Z"/><path class="cls-1" d="M292,95.61h5.4l-7.16-20.52h-5.79l-7.1,20.52h5.35l1.07-3.81h7.09l1.13,3.81Zm-7.22-7.38l1.79-6.36,.69-2.66,.66,2.66,1.89,6.36h-5.03Z"/></g></g><rect class="cls-1" x="137.5" y="108.23" width="178.57" height="1.35"/></svg>